solid tapon_switch_leds
facet normal 0.0 -1.0 -0.0
  outer loop
    vertex 42.5651221564372 3.18248856449002 1.0
    vertex 34.9651221564372 3.18248856449002 0.0
    vertex 42.5651221564372 3.18248856449002 0.0
  endloop
endfacet
facet normal 0.0 -1.0 -0.0
  outer loop
    vertex 34.9651221564372 3.18248856449002 0.0
    vertex 42.5651221564372 3.18248856449002 1.0
    vertex 34.9651221564372 3.18248856449002 1.0
  endloop
endfacet
facet normal -1.0 -0.0 -0.0
  outer loop
    vertex 42.5651221564372 3.18248856449002 1.0
    vertex 42.5651221564372 0.182488564490022 0.0
    vertex 42.5651221564372 0.182488564490022 1.0
  endloop
endfacet
facet normal -1.0 -0.0 -0.0
  outer loop
    vertex 42.5651221564372 0.182488564490022 0.0
    vertex 42.5651221564372 3.18248856449002 1.0
    vertex 42.5651221564372 3.18248856449002 0.0
  endloop
endfacet
facet normal 0.0 1.0 0.0
  outer loop
    vertex 34.9651221564372 0.182488564490022 1.0
    vertex 42.5651221564372 0.182488564490022 0.0
    vertex 34.9651221564372 0.182488564490022 0.0
  endloop
endfacet
facet normal 0.0 1.0 0.0
  outer loop
    vertex 42.5651221564372 0.182488564490022 0.0
    vertex 34.9651221564372 0.182488564490022 1.0
    vertex 42.5651221564372 0.182488564490022 1.0
  endloop
endfacet
facet normal 1.0 -0.0 -0.0
  outer loop
    vertex 34.9651221564372 3.18248856449002 0.0
    vertex 34.9651221564372 0.182488564490022 1.0
    vertex 34.9651221564372 0.182488564490022 0.0
  endloop
endfacet
facet normal 1.0 -0.0 -0.0
  outer loop
    vertex 34.9651221564372 0.182488564490022 1.0
    vertex 34.9651221564372 3.18248856449002 0.0
    vertex 34.9651221564372 3.18248856449002 1.0
  endloop
endfacet
facet normal 0.0 0.0 -1.0
  outer loop
    vertex 42.5651221564372 3.18248856449002 1.0
    vertex 34.9651221564372 0.182488564490022 1.0
    vertex 34.9651221564372 3.18248856449002 1.0
  endloop
endfacet
facet normal 0.0 0.0 -1.0
  outer loop
    vertex 34.9651221564372 0.182488564490022 1.0
    vertex 42.5651221564372 3.18248856449002 1.0
    vertex 42.5651221564372 0.182488564490022 1.0
  endloop
endfacet
facet normal -1.0 0.0 0.0
  outer loop
    vertex 41.1591983236355 17.5173024576639 13.0
    vertex 41.1591983236355 16.9173024576639 3.0
    vertex 41.1591983236355 16.9173024576639 13.0
  endloop
endfacet
facet normal -1.0 0.0 0.0
  outer loop
    vertex 41.1591983236355 16.9173024576639 3.0
    vertex 41.1591983236355 17.5173024576639 13.0
    vertex 41.1591983236355 17.5173024576639 3.0
  endloop
endfacet
facet normal -0.0 -1.0 -0.0
  outer loop
    vertex 41.1591983236355 17.5173024576639 13.0
    vertex 36.3710459892389 17.5173024576639 3.0
    vertex 41.1591983236355 17.5173024576639 3.0
  endloop
endfacet
facet normal -0.0 -1.0 -0.0
  outer loop
    vertex 36.3710459892389 17.5173024576639 3.0
    vertex 41.1591983236355 17.5173024576639 13.0
    vertex 36.3710459892389 17.5173024576639 13.0
  endloop
endfacet
facet normal 1.0 -0.0 -0.0
  outer loop
    vertex 36.3710459892389 17.5173024576639 3.0
    vertex 36.3710459892389 16.9173024576639 13.0
    vertex 36.3710459892389 16.9173024576639 3.0
  endloop
endfacet
facet normal 1.0 -0.0 -0.0
  outer loop
    vertex 36.3710459892389 16.9173024576639 13.0
    vertex 36.3710459892389 17.5173024576639 3.0
    vertex 36.3710459892389 17.5173024576639 13.0
  endloop
endfacet
facet normal -0.0 -0.0 1.0
  outer loop
    vertex 38.7651221564372 17.23248856449 3.0
    vertex 36.3710459892389 17.5173024576639 3.0
    vertex 36.3710459892389 16.9173024576639 3.0
  endloop
endfacet
facet normal -0.0 -0.0 1.0
  outer loop
    vertex 36.3710459892389 17.5173024576639 3.0
    vertex 38.7651221564372 17.23248856449 3.0
    vertex 41.1591983236355 17.5173024576639 3.0
  endloop
endfacet
facet normal -0.0 -0.0 1.0
  outer loop
    vertex 41.1591983236355 17.5173024576639 3.0
    vertex 38.7651221564372 17.23248856449 3.0
    vertex 41.1591983236355 16.9173024576639 3.0
  endloop
endfacet
facet normal 0.130526192220051 0.99144486137381 0.0
  outer loop
    vertex 38.7651221564372 18.28248856449 13.0
    vertex 41.4309583209931 17.9315245752674 0.0
    vertex 38.7651221564372 18.28248856449 0.0
  endloop
endfacet
facet normal 0.130526192220051 0.99144486137381 0.0
  outer loop
    vertex 41.4309583209931 17.9315245752674 0.0
    vertex 38.7651221564372 18.28248856449 13.0
    vertex 41.4309583209931 17.9315245752674 13.0
  endloop
endfacet
facet normal -0.793353340291235 -0.60876142900872 0.0
  outer loop
    vertex 45.3058598824127 14.5232262904656 13.0
    vertex 46.7758571414432 12.60748856449 3.0
    vertex 46.7758571414432 12.60748856449 13.0
  endloop
endfacet
facet normal -0.793353340291235 -0.60876142900872 0.0
  outer loop
    vertex 46.7758571414432 12.60748856449 3.0
    vertex 45.3058598824127 14.5232262904656 13.0
    vertex 45.3058598824127 14.5232262904656 3.0
  endloop
endfacet
facet normal -0.923879532511287 -0.382683432365089 -0.0
  outer loop
    vertex 28.8160861456598 5.31665239993406 13.0
    vertex 29.8450604974574 2.83248856449002 0.0
    vertex 29.8450604974574 2.83248856449002 13.0
  endloop
endfacet
facet normal -0.923879532511287 -0.382683432365089 -0.0
  outer loop
    vertex 29.8450604974574 2.83248856449002 0.0
    vertex 28.8160861456598 5.31665239993406 13.0
    vertex 28.8160861456598 5.31665239993406 0.0
  endloop
endfacet
facet normal -0.130526192220052 -0.99144486137381 -0.0
  outer loop
    vertex 38.7651221564372 -2.31751143550998 13.0
    vertex 36.0992859918812 -1.96654744628738 0.0
    vertex 38.7651221564372 -2.31751143550998 0.0
  endloop
endfacet
facet normal -0.130526192220052 -0.99144486137381 -0.0
  outer loop
    vertex 36.0992859918812 -1.96654744628738 0.0
    vertex 38.7651221564372 -2.31751143550998 13.0
    vertex 36.0992859918812 -1.96654744628738 13.0
  endloop
endfacet
facet normal -0.99144486137381 0.130526192220052 -1.42403767597974e-18
  outer loop
    vertex 28.8160861456598 10.648324729046 13.0
    vertex 28.4651221564372 7.98248856449002 0.0
    vertex 28.4651221564372 7.98248856449002 13.0
  endloop
endfacet
facet normal -0.99144486137381 0.130526192220052 -1.42403767597974e-18
  outer loop
    vertex 28.4651221564372 7.98248856449002 0.0
    vertex 28.8160861456598 10.648324729046 13.0
    vertex 28.5770267793864 8.83248856449002 0.0
  endloop
endfacet
facet normal -0.99144486137381 0.130526192220052 -1.42403767597974e-18
  outer loop
    vertex 28.5770267793864 8.83248856449002 0.0
    vertex 28.8160861456598 10.648324729046 13.0
    vertex 28.8160861456598 10.648324729046 0.0
  endloop
endfacet
facet normal 0.60876142900872 -0.793353340291236 0.0
  outer loop
    vertex 46.0483220026586 0.699288718268581 13.0
    vertex 43.9151221564371 -0.937573094489699 0.0
    vertex 46.0483220026586 0.699288718268581 0.0
  endloop
endfacet
facet normal 0.60876142900872 -0.793353340291236 0.0
  outer loop
    vertex 43.9151221564371 -0.937573094489699 0.0
    vertex 46.0483220026586 0.699288718268581 13.0
    vertex 43.9151221564371 -0.937573094489699 13.0
  endloop
endfacet
facet normal -0.793353340291235 -0.60876142900872 -0.0
  outer loop
    vertex 29.8450604974574 2.83248856449002 13.0
    vertex 31.4819223102157 0.699288718268588 0.0
    vertex 31.4819223102157 0.699288718268588 13.0
  endloop
endfacet
facet normal -0.793353340291235 -0.60876142900872 -0.0
  outer loop
    vertex 31.4819223102157 0.699288718268588 0.0
    vertex 29.8450604974574 2.83248856449002 13.0
    vertex 29.8450604974574 2.83248856449002 0.0
  endloop
endfacet
facet normal -0.793353340291234 0.608761429008722 0.0
  outer loop
    vertex 31.4819223102157 15.2656884107115 13.0
    vertex 29.8450604974574 13.13248856449 0.0
    vertex 29.8450604974574 13.13248856449 13.0
  endloop
endfacet
facet normal -0.793353340291234 0.608761429008722 0.0
  outer loop
    vertex 29.8450604974574 13.13248856449 0.0
    vertex 31.4819223102157 15.2656884107115 13.0
    vertex 31.4819223102157 15.2656884107115 0.0
  endloop
endfacet
facet normal 0.793353340291235 0.60876142900872 -0.0
  outer loop
    vertex 30.7543871714311 3.35748856449002 3.0
    vertex 32.2243844304616 1.44175083851446 13.0
    vertex 32.2243844304616 1.44175083851446 3.0
  endloop
endfacet
facet normal 0.793353340291235 0.60876142900872 -0.0
  outer loop
    vertex 32.2243844304616 1.44175083851446 13.0
    vertex 30.7543871714311 3.35748856449002 3.0
    vertex 30.7543871714311 3.35748856449002 13.0
  endloop
endfacet
facet normal -0.0 -0.0 1.0
  outer loop
    vertex 28.8160861456598 5.31665239993406 13.0
    vertex 28.8160861456598 10.648324729046 13.0
    vertex 28.4651221564372 7.98248856449002 13.0
  endloop
endfacet
facet normal -0.0 -0.0 1.0
  outer loop
    vertex 28.8160861456598 10.648324729046 13.0
    vertex 28.8160861456598 5.31665239993406 13.0
    vertex 29.8450604974574 2.83248856449002 13.0
  endloop
endfacet
facet normal -0.0 -0.0 1.0
  outer loop
    vertex 28.8160861456598 10.648324729046 13.0
    vertex 29.8450604974574 2.83248856449002 13.0
    vertex 29.5151221564372 7.98248856449002 13.0
  endloop
endfacet
facet normal -0.0 -0.0 1.0
  outer loop
    vertex 29.5151221564372 7.98248856449002 13.0
    vertex 29.8450604974574 2.83248856449002 13.0
    vertex 29.8303082632633 5.5884123972917 13.0
  endloop
endfacet
facet normal -0.0 -0.0 1.0
  outer loop
    vertex 29.8303082632633 5.5884123972917 13.0
    vertex 29.8450604974574 2.83248856449002 13.0
    vertex 30.7543871714311 3.35748856449002 13.0
  endloop
endfacet
facet normal -0.0 -0.0 1.0
  outer loop
    vertex 30.7543871714311 3.35748856449002 13.0
    vertex 29.8450604974574 2.83248856449002 13.0
    vertex 31.4819223102157 0.699288718268588 13.0
  endloop
endfacet
facet normal -0.0 -0.0 1.0
  outer loop
    vertex 30.7543871714311 3.35748856449002 13.0
    vertex 31.4819223102157 0.699288718268588 13.0
    vertex 32.2243844304616 1.44175083851446 13.0
  endloop
endfacet
facet normal -0.0 -0.0 1.0
  outer loop
    vertex 32.2243844304616 1.44175083851446 13.0
    vertex 31.4819223102157 0.699288718268588 13.0
    vertex 33.6151221564372 -0.937573094489692 13.0
  endloop
endfacet
facet normal -0.0 -0.0 1.0
  outer loop
    vertex 32.2243844304616 1.44175083851446 13.0
    vertex 33.6151221564372 -0.937573094489692 13.0
    vertex 34.1401221564372 -0.0282464205160353 13.0
  endloop
endfacet
facet normal -0.0 -0.0 1.0
  outer loop
    vertex 34.1401221564372 -0.0282464205160353 13.0
    vertex 33.6151221564372 -0.937573094489692 13.0
    vertex 36.0992859918812 -1.96654744628738 13.0
  endloop
endfacet
facet normal -0.0 -0.0 1.0
  outer loop
    vertex 34.1401221564372 -0.0282464205160353 13.0
    vertex 36.0992859918812 -1.96654744628738 13.0
    vertex 36.3710459892388 -0.95232532868386 13.0
  endloop
endfacet
facet normal -0.0 -0.0 1.0
  outer loop
    vertex 36.3710459892388 -0.95232532868386 13.0
    vertex 36.0992859918812 -1.96654744628738 13.0
    vertex 38.7651221564372 -2.31751143550998 13.0
  endloop
endfacet
facet normal -0.0 -0.0 1.0
  outer loop
    vertex 36.3710459892388 -0.95232532868386 13.0
    vertex 38.7651221564372 -2.31751143550998 13.0
    vertex 38.7651221564372 -1.26751143550998 13.0
  endloop
endfacet
facet normal -0.0 -0.0 1.0
  outer loop
    vertex 38.7651221564372 -1.26751143550998 13.0
    vertex 38.7651221564372 -2.31751143550998 13.0
    vertex 41.4309583209931 -1.96654744628738 13.0
  endloop
endfacet
facet normal -0.0 -0.0 1.0
  outer loop
    vertex 38.7651221564372 -1.26751143550998 13.0
    vertex 41.4309583209931 -1.96654744628738 13.0
    vertex 41.1591983236355 -0.95232532868386 13.0
  endloop
endfacet
facet normal -0.0 -0.0 1.0
  outer loop
    vertex 41.1591983236355 -0.95232532868386 13.0
    vertex 41.4309583209931 -1.96654744628738 13.0
    vertex 43.3901221564372 -0.0282464205160381 13.0
  endloop
endfacet
facet normal -0.0 -0.0 1.0
  outer loop
    vertex 43.3901221564372 -0.0282464205160381 13.0
    vertex 41.4309583209931 -1.96654744628738 13.0
    vertex 43.9151221564371 -0.937573094489699 13.0
  endloop
endfacet
facet normal -0.0 -0.0 1.0
  outer loop
    vertex 43.3901221564372 -0.0282464205160381 13.0
    vertex 43.9151221564371 -0.937573094489699 13.0
    vertex 45.3058598824127 1.44175083851446 13.0
  endloop
endfacet
facet normal -0.0 -0.0 1.0
  outer loop
    vertex 45.3058598824127 1.44175083851446 13.0
    vertex 43.9151221564371 -0.937573094489699 13.0
    vertex 46.0483220026586 0.699288718268581 13.0
  endloop
endfacet
facet normal -0.0 -0.0 1.0
  outer loop
    vertex 45.3058598824127 1.44175083851446 13.0
    vertex 46.0483220026586 0.699288718268581 13.0
    vertex 46.7758571414432 3.35748856449002 13.0
  endloop
endfacet
facet normal -0.0 -0.0 1.0
  outer loop
    vertex 46.7758571414432 3.35748856449002 13.0
    vertex 46.0483220026586 0.699288718268581 13.0
    vertex 47.6851838154169 2.83248856449002 13.0
  endloop
endfacet
facet normal -0.0 -0.0 1.0
  outer loop
    vertex 46.7758571414432 3.35748856449002 13.0
    vertex 47.6851838154169 2.83248856449002 13.0
    vertex 47.699936049611 5.5884123972917 13.0
  endloop
endfacet
facet normal -0.0 -0.0 1.0
  outer loop
    vertex 47.699936049611 5.5884123972917 13.0
    vertex 47.6851838154169 2.83248856449002 13.0
    vertex 48.7141581672146 5.31665239993405 13.0
  endloop
endfacet
facet normal -0.0 -0.0 1.0
  outer loop
    vertex 47.699936049611 5.5884123972917 13.0
    vertex 48.7141581672146 5.31665239993405 13.0
    vertex 48.0151221564372 7.98248856449002 13.0
  endloop
endfacet
facet normal -0.0 -0.0 1.0
  outer loop
    vertex 43.3901221564372 15.9932235494961 13.0
    vertex 41.1591983236355 17.5173024576639 13.0
    vertex 41.1591983236355 16.9173024576639 13.0
  endloop
endfacet
facet normal -0.0 -0.0 1.0
  outer loop
    vertex 41.1591983236355 17.5173024576639 13.0
    vertex 43.3901221564372 15.9932235494961 13.0
    vertex 41.4309583209931 17.9315245752674 13.0
  endloop
endfacet
facet normal -0.0 -0.0 1.0
  outer loop
    vertex 41.4309583209931 17.9315245752674 13.0
    vertex 43.3901221564372 15.9932235494961 13.0
    vertex 43.9151221564372 16.9025502234697 13.0
  endloop
endfacet
facet normal -0.0 -0.0 1.0
  outer loop
    vertex 43.9151221564372 16.9025502234697 13.0
    vertex 43.3901221564372 15.9932235494961 13.0
    vertex 45.3058598824127 14.5232262904656 13.0
  endloop
endfacet
facet normal -0.0 -0.0 1.0
  outer loop
    vertex 43.9151221564372 16.9025502234697 13.0
    vertex 45.3058598824127 14.5232262904656 13.0
    vertex 46.0483220026586 15.2656884107115 13.0
  endloop
endfacet
facet normal -0.0 -0.0 1.0
  outer loop
    vertex 46.0483220026586 15.2656884107115 13.0
    vertex 45.3058598824127 14.5232262904656 13.0
    vertex 46.7758571414432 12.60748856449 13.0
  endloop
endfacet
facet normal -0.0 -0.0 1.0
  outer loop
    vertex 46.0483220026586 15.2656884107115 13.0
    vertex 46.7758571414432 12.60748856449 13.0
    vertex 47.6851838154169 13.13248856449 13.0
  endloop
endfacet
facet normal -0.0 -0.0 1.0
  outer loop
    vertex 47.6851838154169 13.13248856449 13.0
    vertex 46.7758571414432 12.60748856449 13.0
    vertex 47.699936049611 10.3765647316883 13.0
  endloop
endfacet
facet normal -0.0 -0.0 1.0
  outer loop
    vertex 47.6851838154169 13.13248856449 13.0
    vertex 47.699936049611 10.3765647316883 13.0
    vertex 48.7141581672146 10.648324729046 13.0
  endloop
endfacet
facet normal -0.0 -0.0 1.0
  outer loop
    vertex 48.7141581672146 10.648324729046 13.0
    vertex 47.699936049611 10.3765647316883 13.0
    vertex 48.0151221564372 7.98248856449002 13.0
  endloop
endfacet
facet normal -0.0 -0.0 1.0
  outer loop
    vertex 48.7141581672146 10.648324729046 13.0
    vertex 48.0151221564372 7.98248856449002 13.0
    vertex 48.7141581672146 5.31665239993405 13.0
  endloop
endfacet
facet normal -0.0 -0.0 1.0
  outer loop
    vertex 48.7141581672146 10.648324729046 13.0
    vertex 48.7141581672146 5.31665239993405 13.0
    vertex 49.0651221564372 7.98248856449002 13.0
  endloop
endfacet
facet normal -0.0 -0.0 1.0
  outer loop
    vertex 29.5151221564372 7.98248856449002 13.0
    vertex 29.8450604974574 13.13248856449 13.0
    vertex 28.8160861456598 10.648324729046 13.0
  endloop
endfacet
facet normal -0.0 -0.0 1.0
  outer loop
    vertex 29.8450604974574 13.13248856449 13.0
    vertex 29.5151221564372 7.98248856449002 13.0
    vertex 29.8303082632633 10.3765647316883 13.0
  endloop
endfacet
facet normal -0.0 -0.0 1.0
  outer loop
    vertex 29.8450604974574 13.13248856449 13.0
    vertex 29.8303082632633 10.3765647316883 13.0
    vertex 30.7543871714311 12.60748856449 13.0
  endloop
endfacet
facet normal -0.0 -0.0 1.0
  outer loop
    vertex 29.8450604974574 13.13248856449 13.0
    vertex 30.7543871714311 12.60748856449 13.0
    vertex 31.4819223102157 15.2656884107115 13.0
  endloop
endfacet
facet normal -0.0 -0.0 1.0
  outer loop
    vertex 31.4819223102157 15.2656884107115 13.0
    vertex 30.7543871714311 12.60748856449 13.0
    vertex 32.2243844304616 14.5232262904656 13.0
  endloop
endfacet
facet normal -0.0 -0.0 1.0
  outer loop
    vertex 31.4819223102157 15.2656884107115 13.0
    vertex 32.2243844304616 14.5232262904656 13.0
    vertex 33.6151221564372 16.9025502234697 13.0
  endloop
endfacet
facet normal -0.0 -0.0 1.0
  outer loop
    vertex 33.6151221564372 16.9025502234697 13.0
    vertex 32.2243844304616 14.5232262904656 13.0
    vertex 34.1401221564372 15.9932235494961 13.0
  endloop
endfacet
facet normal -0.0 -0.0 1.0
  outer loop
    vertex 33.6151221564372 16.9025502234697 13.0
    vertex 34.1401221564372 15.9932235494961 13.0
    vertex 36.0992859918812 17.9315245752674 13.0
  endloop
endfacet
facet normal -0.0 -0.0 1.0
  outer loop
    vertex 36.0992859918812 17.9315245752674 13.0
    vertex 34.1401221564372 15.9932235494961 13.0
    vertex 36.3710459892389 16.9173024576639 13.0
  endloop
endfacet
facet normal -0.0 -0.0 1.0
  outer loop
    vertex 36.0992859918812 17.9315245752674 13.0
    vertex 36.3710459892389 16.9173024576639 13.0
    vertex 36.3710459892389 17.5173024576639 13.0
  endloop
endfacet
facet normal -0.0 -0.0 1.0
  outer loop
    vertex 36.0992859918812 17.9315245752674 13.0
    vertex 36.3710459892389 17.5173024576639 13.0
    vertex 38.7651221564372 18.28248856449 13.0
  endloop
endfacet
facet normal -0.0 -0.0 1.0
  outer loop
    vertex 38.7651221564372 18.28248856449 13.0
    vertex 36.3710459892389 17.5173024576639 13.0
    vertex 41.1591983236355 17.5173024576639 13.0
  endloop
endfacet
facet normal -0.0 -0.0 1.0
  outer loop
    vertex 38.7651221564372 18.28248856449 13.0
    vertex 41.1591983236355 17.5173024576639 13.0
    vertex 41.4309583209931 17.9315245752674 13.0
  endloop
endfacet
facet normal -0.382683432365089 0.923879532511287 -0.0
  outer loop
    vertex 41.1591983236355 -0.95232532868386 13.0
    vertex 43.3901221564372 -0.0282464205160381 3.0
    vertex 41.1591983236355 -0.95232532868386 3.0
  endloop
endfacet
facet normal -0.382683432365089 0.923879532511287 -0.0
  outer loop
    vertex 43.3901221564372 -0.0282464205160381 3.0
    vertex 41.1591983236355 -0.95232532868386 13.0
    vertex 43.3901221564372 -0.0282464205160381 13.0
  endloop
endfacet
facet normal -0.923879532511287 0.38268343236509 -1.2848682702411e-17
  outer loop
    vertex 47.699936049611 5.5884123972917 13.0
    vertex 46.7758571414432 3.35748856449002 3.0
    vertex 46.7758571414432 3.35748856449002 13.0
  endloop
endfacet
facet normal -0.923879532511287 0.38268343236509 -1.2848682702411e-17
  outer loop
    vertex 46.7758571414432 3.35748856449002 3.0
    vertex 47.699936049611 5.5884123972917 13.0
    vertex 47.699936049611 5.5884123972917 3.0
  endloop
endfacet
facet normal 0.382683432365089 -0.923879532511287 0.0
  outer loop
    vertex 36.3710459892389 16.9173024576639 13.0
    vertex 34.1401221564372 15.9932235494961 3.0
    vertex 36.3710459892389 16.9173024576639 3.0
  endloop
endfacet
facet normal 0.382683432365089 -0.923879532511287 0.0
  outer loop
    vertex 34.1401221564372 15.9932235494961 3.0
    vertex 36.3710459892389 16.9173024576639 13.0
    vertex 34.1401221564372 15.9932235494961 13.0
  endloop
endfacet
facet normal 0.608761429008721 0.793353340291235 -0.0
  outer loop
    vertex 32.2243844304616 1.44175083851446 13.0
    vertex 34.1401221564372 -0.0282464205160353 3.0
    vertex 32.2243844304616 1.44175083851446 3.0
  endloop
endfacet
facet normal 0.608761429008721 0.793353340291235 -0.0
  outer loop
    vertex 34.1401221564372 -0.0282464205160353 3.0
    vertex 32.2243844304616 1.44175083851446 13.0
    vertex 34.1401221564372 -0.0282464205160353 13.0
  endloop
endfacet
facet normal 0.60876142900872 -0.793353340291236 0.0
  outer loop
    vertex 34.1401221564372 15.9932235494961 13.0
    vertex 32.2243844304616 14.5232262904656 3.0
    vertex 34.1401221564372 15.9932235494961 3.0
  endloop
endfacet
facet normal 0.60876142900872 -0.793353340291236 0.0
  outer loop
    vertex 32.2243844304616 14.5232262904656 3.0
    vertex 34.1401221564372 15.9932235494961 13.0
    vertex 32.2243844304616 14.5232262904656 13.0
  endloop
endfacet
facet normal 0.99144486137381 0.130526192220052 -0.0
  outer loop
    vertex 29.5151221564372 7.98248856449002 3.0
    vertex 29.8303082632633 5.5884123972917 13.0
    vertex 29.8303082632633 5.5884123972917 3.0
  endloop
endfacet
facet normal 0.99144486137381 0.130526192220052 -0.0
  outer loop
    vertex 29.8303082632633 5.5884123972917 13.0
    vertex 29.5151221564372 7.98248856449002 3.0
    vertex 29.5151221564372 7.98248856449002 13.0
  endloop
endfacet
facet normal -0.923879532511287 0.382683432365089 0.0
  outer loop
    vertex 29.8450604974574 13.13248856449 13.0
    vertex 28.8160861456598 10.648324729046 0.0
    vertex 28.8160861456598 10.648324729046 13.0
  endloop
endfacet
facet normal -0.923879532511287 0.382683432365089 0.0
  outer loop
    vertex 28.8160861456598 10.648324729046 0.0
    vertex 29.8450604974574 13.13248856449 13.0
    vertex 29.8450604974574 13.13248856449 0.0
  endloop
endfacet
facet normal -0.991485926764629 -0.130213787506959 -0.000163005452840807
  outer loop
    vertex 28.4651221564372 7.98248856449002 13.0
    vertex 28.8160861456598 5.31665239993406 0.0
    vertex 28.8160861456598 5.31665239993406 13.0
  endloop
endfacet
facet normal -0.991485926764629 -0.130213787506959 -0.000163005452840807
  outer loop
    vertex 28.8160861456598 5.31665239993406 0.0
    vertex 28.4651221564372 7.98248856449002 13.0
    vertex 28.5770267793864 7.18248856449002 0.0
  endloop
endfacet
facet normal -0.991485926764629 -0.130213787506959 -0.000163005452840807
  outer loop
    vertex 28.5770267793864 7.18248856449002 0.0
    vertex 28.4651221564372 7.98248856449002 13.0
    vertex 28.4651221564372 7.98248856449002 0.0
  endloop
endfacet
facet normal 0.923879532511287 0.38268343236509 -0.0
  outer loop
    vertex 29.8303082632633 5.5884123972917 3.0
    vertex 30.7543871714311 3.35748856449002 13.0
    vertex 30.7543871714311 3.35748856449002 3.0
  endloop
endfacet
facet normal 0.923879532511287 0.38268343236509 -0.0
  outer loop
    vertex 30.7543871714311 3.35748856449002 13.0
    vertex 29.8303082632633 5.5884123972917 3.0
    vertex 29.8303082632633 5.5884123972917 13.0
  endloop
endfacet
facet normal 0.991485926764629 -0.13021378750696 -0.000163005452840779
  outer loop
    vertex 48.9532175334879 7.18248856449002 0.0
    vertex 48.7141581672146 5.31665239993405 13.0
    vertex 48.7141581672146 5.31665239993405 0.0
  endloop
endfacet
facet normal 0.991485926764629 -0.13021378750696 -0.000163005452840779
  outer loop
    vertex 48.7141581672146 5.31665239993405 13.0
    vertex 48.9532175334879 7.18248856449002 0.0
    vertex 49.0651221564372 7.98248856449002 13.0
  endloop
endfacet
facet normal 0.991485926764629 -0.13021378750696 -0.000163005452840779
  outer loop
    vertex 49.0651221564372 7.98248856449002 13.0
    vertex 48.9532175334879 7.18248856449002 0.0
    vertex 49.0651221564372 7.98248856449002 0.0
  endloop
endfacet
facet normal 0.99144486137381 -0.130526192220052 -0.0
  outer loop
    vertex 29.8303082632633 10.3765647316883 3.0
    vertex 29.5151221564372 7.98248856449002 13.0
    vertex 29.5151221564372 7.98248856449002 3.0
  endloop
endfacet
facet normal 0.99144486137381 -0.130526192220052 -0.0
  outer loop
    vertex 29.5151221564372 7.98248856449002 13.0
    vertex 29.8303082632633 10.3765647316883 3.0
    vertex 29.8303082632633 10.3765647316883 13.0
  endloop
endfacet
facet normal -0.38268343236509 -0.923879532511287 0.0
  outer loop
    vertex 43.3901221564372 15.9932235494961 13.0
    vertex 41.1591983236355 16.9173024576639 3.0
    vertex 43.3901221564372 15.9932235494961 3.0
  endloop
endfacet
facet normal -0.38268343236509 -0.923879532511287 0.0
  outer loop
    vertex 41.1591983236355 16.9173024576639 3.0
    vertex 43.3901221564372 15.9932235494961 13.0
    vertex 41.1591983236355 16.9173024576639 13.0
  endloop
endfacet
facet normal -0.923879532511287 -0.38268343236509 0.0
  outer loop
    vertex 46.7758571414432 12.60748856449 13.0
    vertex 47.699936049611 10.3765647316883 3.0
    vertex 47.699936049611 10.3765647316883 13.0
  endloop
endfacet
facet normal -0.923879532511287 -0.38268343236509 0.0
  outer loop
    vertex 47.699936049611 10.3765647316883 3.0
    vertex 46.7758571414432 12.60748856449 13.0
    vertex 46.7758571414432 12.60748856449 3.0
  endloop
endfacet
facet normal 0.130526192220051 -0.99144486137381 0.0
  outer loop
    vertex 41.4309583209931 -1.96654744628738 13.0
    vertex 38.7651221564372 -2.31751143550998 0.0
    vertex 41.4309583209931 -1.96654744628738 0.0
  endloop
endfacet
facet normal 0.130526192220051 -0.99144486137381 0.0
  outer loop
    vertex 38.7651221564372 -2.31751143550998 0.0
    vertex 41.4309583209931 -1.96654744628738 13.0
    vertex 38.7651221564372 -2.31751143550998 13.0
  endloop
endfacet
facet normal -0.382683432365091 -0.923879532511287 -0.0
  outer loop
    vertex 36.0992859918812 -1.96654744628738 13.0
    vertex 33.6151221564372 -0.937573094489692 0.0
    vertex 36.0992859918812 -1.96654744628738 0.0
  endloop
endfacet
facet normal -0.382683432365091 -0.923879532511287 -0.0
  outer loop
    vertex 33.6151221564372 -0.937573094489692 0.0
    vertex 36.0992859918812 -1.96654744628738 13.0
    vertex 33.6151221564372 -0.937573094489692 13.0
  endloop
endfacet
facet normal 0.793353340291235 -0.60876142900872 0.0
  outer loop
    vertex 47.6851838154169 2.83248856449002 0.0
    vertex 46.0483220026586 0.699288718268581 13.0
    vertex 46.0483220026586 0.699288718268581 0.0
  endloop
endfacet
facet normal 0.793353340291235 -0.60876142900872 0.0
  outer loop
    vertex 46.0483220026586 0.699288718268581 13.0
    vertex 47.6851838154169 2.83248856449002 0.0
    vertex 47.6851838154169 2.83248856449002 13.0
  endloop
endfacet
facet normal -0.130526192220052 0.99144486137381 -0.0
  outer loop
    vertex 38.7651221564372 -1.26751143550998 13.0
    vertex 41.1591983236355 -0.95232532868386 3.0
    vertex 38.7651221564372 -1.26751143550998 3.0
  endloop
endfacet
facet normal -0.130526192220052 0.99144486137381 -0.0
  outer loop
    vertex 41.1591983236355 -0.95232532868386 3.0
    vertex 38.7651221564372 -1.26751143550998 13.0
    vertex 41.1591983236355 -0.95232532868386 13.0
  endloop
endfacet
facet normal -0.608761429008721 -0.793353340291235 -0.0
  outer loop
    vertex 33.6151221564372 -0.937573094489692 13.0
    vertex 31.4819223102157 0.699288718268588 0.0
    vertex 33.6151221564372 -0.937573094489692 0.0
  endloop
endfacet
facet normal -0.608761429008721 -0.793353340291235 -0.0
  outer loop
    vertex 31.4819223102157 0.699288718268588 0.0
    vertex 33.6151221564372 -0.937573094489692 13.0
    vertex 31.4819223102157 0.699288718268588 13.0
  endloop
endfacet
facet normal 0.793353340291235 -0.608761429008721 -4.42851554560217e-17
  outer loop
    vertex 30.7543871714311 12.60748856449 3.0
    vertex 32.2243844304616 14.5232262904656 13.0
    vertex 30.7543871714311 12.60748856449 13.0
  endloop
endfacet
facet normal 0.793353340291235 -0.608761429008721 -4.42851554560217e-17
  outer loop
    vertex 32.2243844304616 14.5232262904656 13.0
    vertex 30.7543871714311 12.60748856449 3.0
    vertex 32.2243844304616 14.5232262904656 3.0
  endloop
endfacet
facet normal 0.793353340291235 0.60876142900872 0.0
  outer loop
    vertex 46.0483220026586 15.2656884107115 0.0
    vertex 47.6851838154169 13.13248856449 13.0
    vertex 47.6851838154169 13.13248856449 0.0
  endloop
endfacet
facet normal 0.793353340291235 0.60876142900872 0.0
  outer loop
    vertex 47.6851838154169 13.13248856449 13.0
    vertex 46.0483220026586 15.2656884107115 0.0
    vertex 46.0483220026586 15.2656884107115 13.0
  endloop
endfacet
facet normal 0.923879532511287 -0.382683432365091 -2.99802596389591e-17
  outer loop
    vertex 30.7543871714311 12.60748856449 3.0
    vertex 29.8303082632633 10.3765647316883 13.0
    vertex 29.8303082632633 10.3765647316883 3.0
  endloop
endfacet
facet normal 0.923879532511287 -0.382683432365091 -2.99802596389591e-17
  outer loop
    vertex 29.8303082632633 10.3765647316883 13.0
    vertex 30.7543871714311 12.60748856449 3.0
    vertex 30.7543871714311 12.60748856449 13.0
  endloop
endfacet
facet normal -0.130526192220052 0.99144486137381 0.0
  outer loop
    vertex 36.0992859918812 17.9315245752674 13.0
    vertex 38.7651221564372 18.28248856449 0.0
    vertex 36.0992859918812 17.9315245752674 0.0
  endloop
endfacet
facet normal -0.130526192220052 0.99144486137381 0.0
  outer loop
    vertex 38.7651221564372 18.28248856449 0.0
    vertex 36.0992859918812 17.9315245752674 13.0
    vertex 38.7651221564372 18.28248856449 13.0
  endloop
endfacet
facet normal -0.991444861373811 -0.13052619222005 0.0
  outer loop
    vertex 47.699936049611 10.3765647316883 13.0
    vertex 48.0151221564372 7.98248856449002 3.0
    vertex 48.0151221564372 7.98248856449002 13.0
  endloop
endfacet
facet normal -0.991444861373811 -0.13052619222005 0.0
  outer loop
    vertex 48.0151221564372 7.98248856449002 3.0
    vertex 47.699936049611 10.3765647316883 13.0
    vertex 47.699936049611 10.3765647316883 3.0
  endloop
endfacet
facet normal 0.382683432365089 0.923879532511287 0.0
  outer loop
    vertex 41.4309583209931 17.9315245752674 13.0
    vertex 43.9151221564372 16.9025502234697 0.0
    vertex 41.4309583209931 17.9315245752674 0.0
  endloop
endfacet
facet normal 0.382683432365089 0.923879532511287 0.0
  outer loop
    vertex 43.9151221564372 16.9025502234697 0.0
    vertex 41.4309583209931 17.9315245752674 13.0
    vertex 43.9151221564372 16.9025502234697 13.0
  endloop
endfacet
facet normal 0.923879532511287 -0.38268343236509 0.0
  outer loop
    vertex 48.7141581672146 5.31665239993405 0.0
    vertex 47.6851838154169 2.83248856449002 13.0
    vertex 47.6851838154169 2.83248856449002 0.0
  endloop
endfacet
facet normal 0.923879532511287 -0.38268343236509 0.0
  outer loop
    vertex 47.6851838154169 2.83248856449002 13.0
    vertex 48.7141581672146 5.31665239993405 0.0
    vertex 48.7141581672146 5.31665239993405 13.0
  endloop
endfacet
facet normal -0.60876142900872 0.793353340291235 -0.0
  outer loop
    vertex 43.3901221564372 -0.0282464205160381 13.0
    vertex 45.3058598824127 1.44175083851446 3.0
    vertex 43.3901221564372 -0.0282464205160381 3.0
  endloop
endfacet
facet normal -0.60876142900872 0.793353340291235 -0.0
  outer loop
    vertex 45.3058598824127 1.44175083851446 3.0
    vertex 43.3901221564372 -0.0282464205160381 13.0
    vertex 45.3058598824127 1.44175083851446 13.0
  endloop
endfacet
facet normal 0.923879532511287 0.382683432365089 0.0
  outer loop
    vertex 47.6851838154169 13.13248856449 0.0
    vertex 48.7141581672146 10.648324729046 13.0
    vertex 48.7141581672146 10.648324729046 0.0
  endloop
endfacet
facet normal 0.923879532511287 0.382683432365089 0.0
  outer loop
    vertex 48.7141581672146 10.648324729046 13.0
    vertex 47.6851838154169 13.13248856449 0.0
    vertex 47.6851838154169 13.13248856449 13.0
  endloop
endfacet
facet normal 0.38268343236509 0.923879532511287 -0.0
  outer loop
    vertex 34.1401221564372 -0.0282464205160353 13.0
    vertex 36.3710459892388 -0.95232532868386 3.0
    vertex 34.1401221564372 -0.0282464205160353 3.0
  endloop
endfacet
facet normal 0.38268343236509 0.923879532511287 -0.0
  outer loop
    vertex 36.3710459892388 -0.95232532868386 3.0
    vertex 34.1401221564372 -0.0282464205160353 13.0
    vertex 36.3710459892388 -0.95232532868386 13.0
  endloop
endfacet
facet normal 0.38268343236509 -0.923879532511287 0.0
  outer loop
    vertex 43.9151221564371 -0.937573094489699 13.0
    vertex 41.4309583209931 -1.96654744628738 0.0
    vertex 43.9151221564371 -0.937573094489699 0.0
  endloop
endfacet
facet normal 0.38268343236509 -0.923879532511287 0.0
  outer loop
    vertex 41.4309583209931 -1.96654744628738 0.0
    vertex 43.9151221564371 -0.937573094489699 13.0
    vertex 41.4309583209931 -1.96654744628738 13.0
  endloop
endfacet
facet normal -0.60876142900872 0.793353340291235 0.0
  outer loop
    vertex 31.4819223102157 15.2656884107115 13.0
    vertex 33.6151221564372 16.9025502234697 0.0
    vertex 31.4819223102157 15.2656884107115 0.0
  endloop
endfacet
facet normal -0.60876142900872 0.793353340291235 0.0
  outer loop
    vertex 33.6151221564372 16.9025502234697 0.0
    vertex 31.4819223102157 15.2656884107115 13.0
    vertex 33.6151221564372 16.9025502234697 13.0
  endloop
endfacet
facet normal 0.608761429008721 0.793353340291235 0.0
  outer loop
    vertex 43.9151221564372 16.9025502234697 13.0
    vertex 46.0483220026586 15.2656884107115 0.0
    vertex 43.9151221564372 16.9025502234697 0.0
  endloop
endfacet
facet normal 0.608761429008721 0.793353340291235 0.0
  outer loop
    vertex 46.0483220026586 15.2656884107115 0.0
    vertex 43.9151221564372 16.9025502234697 13.0
    vertex 46.0483220026586 15.2656884107115 13.0
  endloop
endfacet
facet normal -0.793353340291235 0.608761429008721 0.0
  outer loop
    vertex 46.7758571414432 3.35748856449002 13.0
    vertex 45.3058598824127 1.44175083851446 3.0
    vertex 45.3058598824127 1.44175083851446 13.0
  endloop
endfacet
facet normal -0.793353340291235 0.608761429008721 0.0
  outer loop
    vertex 45.3058598824127 1.44175083851446 3.0
    vertex 46.7758571414432 3.35748856449002 13.0
    vertex 46.7758571414432 3.35748856449002 3.0
  endloop
endfacet
facet normal -0.99144486137381 0.130526192220052 -4.38244639394102e-18
  outer loop
    vertex 47.699936049611 5.5884123972917 13.0
    vertex 48.0151221564372 7.98248856449002 3.0
    vertex 47.699936049611 5.5884123972917 3.0
  endloop
endfacet
facet normal -0.99144486137381 0.130526192220052 -4.38244639394102e-18
  outer loop
    vertex 48.0151221564372 7.98248856449002 3.0
    vertex 47.699936049611 5.5884123972917 13.0
    vertex 48.0151221564372 7.98248856449002 13.0
  endloop
endfacet
facet normal -0.382683432365089 0.923879532511287 0.0
  outer loop
    vertex 33.6151221564372 16.9025502234697 13.0
    vertex 36.0992859918812 17.9315245752674 0.0
    vertex 33.6151221564372 16.9025502234697 0.0
  endloop
endfacet
facet normal -0.382683432365089 0.923879532511287 0.0
  outer loop
    vertex 36.0992859918812 17.9315245752674 0.0
    vertex 33.6151221564372 16.9025502234697 13.0
    vertex 36.0992859918812 17.9315245752674 13.0
  endloop
endfacet
facet normal -0.60876142900872 -0.793353340291235 0.0
  outer loop
    vertex 45.3058598824127 14.5232262904656 13.0
    vertex 43.3901221564372 15.9932235494961 3.0
    vertex 45.3058598824127 14.5232262904656 3.0
  endloop
endfacet
facet normal -0.60876142900872 -0.793353340291235 0.0
  outer loop
    vertex 43.3901221564372 15.9932235494961 3.0
    vertex 45.3058598824127 14.5232262904656 13.0
    vertex 43.3901221564372 15.9932235494961 13.0
  endloop
endfacet
facet normal 0.0 0.0 -1.0
  outer loop
    vertex 28.5770267793864 8.83248856449002 0.0
    vertex 28.5770267793864 7.18248856449002 0.0
    vertex 28.4651221564372 7.98248856449002 0.0
  endloop
endfacet
facet normal 0.0 0.0 -1.0
  outer loop
    vertex 28.5770267793864 7.18248856449002 0.0
    vertex 28.5770267793864 8.83248856449002 0.0
    vertex 28.8160861456598 10.648324729046 0.0
  endloop
endfacet
facet normal 0.0 0.0 -1.0
  outer loop
    vertex 28.5770267793864 7.18248856449002 0.0
    vertex 28.8160861456598 10.648324729046 0.0
    vertex 28.8160861456598 5.31665239993406 0.0
  endloop
endfacet
facet normal 0.0 0.0 -1.0
  outer loop
    vertex 28.8160861456598 5.31665239993406 0.0
    vertex 28.8160861456598 10.648324729046 0.0
    vertex 29.8450604974574 13.13248856449 0.0
  endloop
endfacet
facet normal 0.0 0.0 -1.0
  outer loop
    vertex 28.8160861456598 5.31665239993406 0.0
    vertex 29.8450604974574 13.13248856449 0.0
    vertex 29.5151221564372 7.98248856449002 -2.8199664825479e-15
  endloop
endfacet
facet normal 0.0 0.0 -1.0
  outer loop
    vertex 29.5151221564372 7.98248856449002 -2.8199664825479e-15
    vertex 29.8450604974574 13.13248856449 0.0
    vertex 29.6270267793864 8.83248856449002 -1.40998324127395e-15
  endloop
endfacet
facet normal 0.0 0.0 -1.0
  outer loop
    vertex 29.6270267793864 8.83248856449002 -1.40998324127395e-15
    vertex 29.8450604974574 13.13248856449 0.0
    vertex 47.9032175334879 8.83248856449002 -1.40998324127395e-15
  endloop
endfacet
facet normal 0.0 0.0 -1.0
  outer loop
    vertex 47.9032175334879 8.83248856449002 -1.40998324127395e-15
    vertex 29.8450604974574 13.13248856449 0.0
    vertex 31.4819223102157 15.2656884107115 0.0
  endloop
endfacet
facet normal 0.0 0.0 -1.0
  outer loop
    vertex 47.9032175334879 8.83248856449002 -1.40998324127395e-15
    vertex 31.4819223102157 15.2656884107115 0.0
    vertex 33.6151221564372 16.9025502234697 0.0
  endloop
endfacet
facet normal 0.0 0.0 -1.0
  outer loop
    vertex 47.9032175334879 8.83248856449002 -1.40998324127395e-15
    vertex 33.6151221564372 16.9025502234697 0.0
    vertex 36.0992859918812 17.9315245752674 0.0
  endloop
endfacet
facet normal 0.0 0.0 -1.0
  outer loop
    vertex 47.9032175334879 8.83248856449002 -1.40998324127395e-15
    vertex 36.0992859918812 17.9315245752674 0.0
    vertex 38.7651221564372 18.28248856449 0.0
  endloop
endfacet
facet normal 0.0 0.0 -1.0
  outer loop
    vertex 47.9032175334879 8.83248856449002 -1.40998324127395e-15
    vertex 38.7651221564372 18.28248856449 0.0
    vertex 41.4309583209931 17.9315245752674 0.0
  endloop
endfacet
facet normal 0.0 0.0 -1.0
  outer loop
    vertex 47.9032175334879 8.83248856449002 -1.40998324127395e-15
    vertex 41.4309583209931 17.9315245752674 0.0
    vertex 43.9151221564372 16.9025502234697 0.0
  endloop
endfacet
facet normal 0.0 0.0 -1.0
  outer loop
    vertex 47.9032175334879 8.83248856449002 -1.40998324127395e-15
    vertex 43.9151221564372 16.9025502234697 0.0
    vertex 46.0483220026586 15.2656884107115 0.0
  endloop
endfacet
facet normal 0.0 0.0 -1.0
  outer loop
    vertex 47.9032175334879 8.83248856449002 -1.40998324127395e-15
    vertex 46.0483220026586 15.2656884107115 0.0
    vertex 47.6851838154169 13.13248856449 0.0
  endloop
endfacet
facet normal 0.0 0.0 -1.0
  outer loop
    vertex 47.9032175334879 8.83248856449002 -1.40998324127395e-15
    vertex 47.6851838154169 13.13248856449 0.0
    vertex 48.7141581672146 10.648324729046 0.0
  endloop
endfacet
facet normal 0.0 0.0 -1.0
  outer loop
    vertex 47.9032175334879 8.83248856449002 -1.40998324127395e-15
    vertex 48.7141581672146 10.648324729046 0.0
    vertex 48.0151221564372 7.98248856449002 -2.8199664825479e-15
  endloop
endfacet
facet normal 0.0 0.0 -1.0
  outer loop
    vertex 48.0151221564372 7.98248856449002 -2.8199664825479e-15
    vertex 48.7141581672146 10.648324729046 0.0
    vertex 48.7141581672146 5.31665239993405 0.0
  endloop
endfacet
facet normal 0.0 0.0 -1.0
  outer loop
    vertex 48.7141581672146 5.31665239993405 0.0
    vertex 48.7141581672146 10.648324729046 0.0
    vertex 48.9532175334879 7.18248856449002 0.0
  endloop
endfacet
facet normal 0.0 0.0 -1.0
  outer loop
    vertex 48.9532175334879 7.18248856449002 0.0
    vertex 48.7141581672146 10.648324729046 0.0
    vertex 48.9532175334879 8.83248856449002 0.0
  endloop
endfacet
facet normal 0.0 0.0 -1.0
  outer loop
    vertex 48.9532175334879 7.18248856449002 0.0
    vertex 48.9532175334879 8.83248856449002 0.0
    vertex 49.0651221564372 7.98248856449002 0.0
  endloop
endfacet
facet normal 0.0 0.0 -1.0
  outer loop
    vertex 29.5151221564372 7.98248856449002 -2.8199664825479e-15
    vertex 29.8450604974574 2.83248856449002 0.0
    vertex 28.8160861456598 5.31665239993406 0.0
  endloop
endfacet
facet normal 0.0 0.0 -1.0
  outer loop
    vertex 29.8450604974574 2.83248856449002 0.0
    vertex 29.5151221564372 7.98248856449002 -2.8199664825479e-15
    vertex 29.6204441545071 7.18248856449002 -1.40998324127395e-15
  endloop
endfacet
facet normal 0.0 0.0 -1.0
  outer loop
    vertex 29.8450604974574 2.83248856449002 0.0
    vertex 29.6204441545071 7.18248856449002 -1.40998324127395e-15
    vertex 47.9098001583672 7.18248856449002 -1.40998324127395e-15
  endloop
endfacet
facet normal 0.0 0.0 -1.0
  outer loop
    vertex 29.8450604974574 2.83248856449002 0.0
    vertex 47.9098001583672 7.18248856449002 -1.40998324127395e-15
    vertex 34.9651221564372 3.18248856449002 0.0
  endloop
endfacet
facet normal 0.0 0.0 -1.0
  outer loop
    vertex 29.8450604974574 2.83248856449002 0.0
    vertex 34.9651221564372 3.18248856449002 0.0
    vertex 31.4819223102157 0.699288718268588 0.0
  endloop
endfacet
facet normal 0.0 0.0 -1.0
  outer loop
    vertex 31.4819223102157 0.699288718268588 0.0
    vertex 34.9651221564372 3.18248856449002 0.0
    vertex 33.6151221564372 -0.937573094489692 0.0
  endloop
endfacet
facet normal 0.0 0.0 -1.0
  outer loop
    vertex 34.9651221564372 3.18248856449002 0.0
    vertex 47.9098001583672 7.18248856449002 -1.40998324127395e-15
    vertex 42.5651221564372 3.18248856449002 0.0
  endloop
endfacet
facet normal 0.0 0.0 -1.0
  outer loop
    vertex 42.5651221564372 3.18248856449002 0.0
    vertex 47.9098001583672 7.18248856449002 -1.40998324127395e-15
    vertex 42.5651221564372 0.182488564490022 0.0
  endloop
endfacet
facet normal 0.0 0.0 -1.0
  outer loop
    vertex 42.5651221564372 0.182488564490022 0.0
    vertex 47.9098001583672 7.18248856449002 -1.40998324127395e-15
    vertex 43.9151221564371 -0.937573094489699 0.0
  endloop
endfacet
facet normal 0.0 0.0 -1.0
  outer loop
    vertex 43.9151221564371 -0.937573094489699 0.0
    vertex 47.9098001583672 7.18248856449002 -1.40998324127395e-15
    vertex 46.0483220026586 0.699288718268581 0.0
  endloop
endfacet
facet normal 0.0 0.0 -1.0
  outer loop
    vertex 46.0483220026586 0.699288718268581 0.0
    vertex 47.9098001583672 7.18248856449002 -1.40998324127395e-15
    vertex 47.6851838154169 2.83248856449002 0.0
  endloop
endfacet
facet normal 0.0 0.0 -1.0
  outer loop
    vertex 47.6851838154169 2.83248856449002 0.0
    vertex 47.9098001583672 7.18248856449002 -1.40998324127395e-15
    vertex 48.7141581672146 5.31665239993405 0.0
  endloop
endfacet
facet normal 0.0 0.0 -1.0
  outer loop
    vertex 48.7141581672146 5.31665239993405 0.0
    vertex 47.9098001583672 7.18248856449002 -1.40998324127395e-15
    vertex 48.0151221564372 7.98248856449002 -2.8199664825479e-15
  endloop
endfacet
facet normal 0.0 0.0 -1.0
  outer loop
    vertex 33.6151221564372 -0.937573094489692 0.0
    vertex 34.9651221564372 0.182488564490022 0.0
    vertex 36.0992859918812 -1.96654744628738 0.0
  endloop
endfacet
facet normal 0.0 0.0 -1.0
  outer loop
    vertex 34.9651221564372 0.182488564490022 0.0
    vertex 33.6151221564372 -0.937573094489692 0.0
    vertex 34.9651221564372 3.18248856449002 0.0
  endloop
endfacet
facet normal 0.0 0.0 -1.0
  outer loop
    vertex 36.0992859918812 -1.96654744628738 0.0
    vertex 34.9651221564372 0.182488564490022 0.0
    vertex 42.5651221564372 0.182488564490022 0.0
  endloop
endfacet
facet normal 0.0 0.0 -1.0
  outer loop
    vertex 36.0992859918812 -1.96654744628738 0.0
    vertex 42.5651221564372 0.182488564490022 0.0
    vertex 38.7651221564372 -2.31751143550998 0.0
  endloop
endfacet
facet normal 0.0 0.0 -1.0
  outer loop
    vertex 38.7651221564372 -2.31751143550998 0.0
    vertex 42.5651221564372 0.182488564490022 0.0
    vertex 41.4309583209931 -1.96654744628738 0.0
  endloop
endfacet
facet normal 0.0 0.0 -1.0
  outer loop
    vertex 41.4309583209931 -1.96654744628738 0.0
    vertex 42.5651221564372 0.182488564490022 0.0
    vertex 43.9151221564371 -0.937573094489699 0.0
  endloop
endfacet
facet normal 4.58615379055081e-34 1.72580568087391e-17 -1.0
  outer loop
    vertex 29.6270267793864 8.83248856449002 1.4
    vertex 29.6204441545071 7.18248856449002 1.4
    vertex 29.5151221564372 7.98248856449002 1.4
  endloop
endfacet
facet normal 4.58615379055081e-34 1.72580568087391e-17 -1.0
  outer loop
    vertex 29.6204441545071 7.18248856449002 1.4
    vertex 29.6270267793864 8.83248856449002 1.4
    vertex 47.9098001583672 7.18248856449002 1.4
  endloop
endfacet
facet normal 4.58615379055081e-34 1.72580568087391e-17 -1.0
  outer loop
    vertex 47.9098001583672 7.18248856449002 1.4
    vertex 29.6270267793864 8.83248856449002 1.4
    vertex 47.9032175334879 8.83248856449002 1.4
  endloop
endfacet
facet normal 4.58615379055081e-34 1.72580568087391e-17 -1.0
  outer loop
    vertex 47.9098001583672 7.18248856449002 1.4
    vertex 47.9032175334879 8.83248856449002 1.4
    vertex 48.0151221564372 7.98248856449002 1.4
  endloop
endfacet
facet normal 0.99144486137381 -0.130526192220051 1.90778608383711e-18
  outer loop
    vertex 29.6270267793864 8.83248856449002 -1.40998324127395e-15
    vertex 29.5151221564372 7.98248856449002 1.4
    vertex 29.5151221564372 7.98248856449002 -2.8199664825479e-15
  endloop
endfacet
facet normal 0.99144486137381 -0.130526192220051 1.90778608383711e-18
  outer loop
    vertex 29.5151221564372 7.98248856449002 1.4
    vertex 29.6270267793864 8.83248856449002 -1.40998324127395e-15
    vertex 29.6270267793864 8.83248856449002 1.4
  endloop
endfacet
facet normal 0.0 -1.0 -1.72580568087391e-17
  outer loop
    vertex 47.9032175334879 8.83248856449002 1.4
    vertex 29.6270267793864 8.83248856449002 -1.40998324127395e-15
    vertex 47.9032175334879 8.83248856449002 -1.40998324127395e-15
  endloop
endfacet
facet normal 0.0 -1.0 -1.72580568087391e-17
  outer loop
    vertex 29.6270267793864 8.83248856449002 -1.40998324127395e-15
    vertex 47.9032175334879 8.83248856449002 1.4
    vertex 29.6270267793864 8.83248856449002 1.4
  endloop
endfacet
facet normal -0.99144486137381 -0.130526192220051 4.23689237313384e-18
  outer loop
    vertex 47.9032175334879 8.83248856449002 1.4
    vertex 48.0151221564372 7.98248856449002 -2.8199664825479e-15
    vertex 48.0151221564372 7.98248856449002 1.4
  endloop
endfacet
facet normal -0.99144486137381 -0.130526192220051 4.23689237313384e-18
  outer loop
    vertex 48.0151221564372 7.98248856449002 -2.8199664825479e-15
    vertex 47.9032175334879 8.83248856449002 1.4
    vertex 47.9032175334879 8.83248856449002 -1.40998324127395e-15
  endloop
endfacet
facet normal -0.99144486137381 0.130526192220051 -6.56703115078412e-19
  outer loop
    vertex 48.0151221564372 7.98248856449002 1.4
    vertex 47.9098001583672 7.18248856449002 -1.40998324127395e-15
    vertex 47.9098001583672 7.18248856449002 1.4
  endloop
endfacet
facet normal -0.99144486137381 0.130526192220051 -6.56703115078412e-19
  outer loop
    vertex 47.9098001583672 7.18248856449002 -1.40998324127395e-15
    vertex 48.0151221564372 7.98248856449002 1.4
    vertex 48.0151221564372 7.98248856449002 -2.8199664825479e-15
  endloop
endfacet
facet normal 0.0 1.0 1.72580568087391e-17
  outer loop
    vertex 29.6204441545071 7.18248856449002 1.4
    vertex 47.9098001583672 7.18248856449002 -1.40998324127395e-15
    vertex 29.6204441545071 7.18248856449002 -1.40998324127395e-15
  endloop
endfacet
facet normal 0.0 1.0 1.72580568087391e-17
  outer loop
    vertex 47.9098001583672 7.18248856449002 -1.40998324127395e-15
    vertex 29.6204441545071 7.18248856449002 1.4
    vertex 47.9098001583672 7.18248856449002 1.4
  endloop
endfacet
facet normal 0.99144486137381 0.130526192220051 -6.56703115078549e-19
  outer loop
    vertex 29.5151221564372 7.98248856449002 -2.8199664825479e-15
    vertex 29.6204441545071 7.18248856449002 1.4
    vertex 29.6204441545071 7.18248856449002 -1.40998324127395e-15
  endloop
endfacet
facet normal 0.99144486137381 0.130526192220051 -6.56703115078549e-19
  outer loop
    vertex 29.6204441545071 7.18248856449002 1.4
    vertex 29.5151221564372 7.98248856449002 -2.8199664825479e-15
    vertex 29.5151221564372 7.98248856449002 1.4
  endloop
endfacet
facet normal -4.25976725539952e-32 -1.35538049035439e-32 1.0
  outer loop
    vertex 29.8303082632633 5.5884123972917 3.0
    vertex 29.8303082632633 10.3765647316883 3.0
    vertex 29.5151221564372 7.98248856449002 3.0
  endloop
endfacet
facet normal -4.25976725539952e-32 -1.35538049035439e-32 1.0
  outer loop
    vertex 29.8303082632633 10.3765647316883 3.0
    vertex 29.8303082632633 5.5884123972917 3.0
    vertex 30.7543871714311 3.35748856449002 3.0
  endloop
endfacet
facet normal -4.25976725539952e-32 -1.35538049035439e-32 1.0
  outer loop
    vertex 29.8303082632633 10.3765647316883 3.0
    vertex 30.7543871714311 3.35748856449002 3.0
    vertex 30.7543871714311 12.60748856449 3.0
  endloop
endfacet
facet normal -4.25976725539952e-32 -1.35538049035439e-32 1.0
  outer loop
    vertex 30.7543871714311 12.60748856449 3.0
    vertex 30.7543871714311 3.35748856449002 3.0
    vertex 32.2243844304616 1.44175083851446 3.0
  endloop
endfacet
facet normal -4.25976725539952e-32 -1.35538049035439e-32 1.0
  outer loop
    vertex 30.7543871714311 12.60748856449 3.0
    vertex 32.2243844304616 1.44175083851446 3.0
    vertex 32.2243844304616 14.5232262904656 3.0
  endloop
endfacet
facet normal -4.25976725539952e-32 -1.35538049035439e-32 1.0
  outer loop
    vertex 32.2243844304616 14.5232262904656 3.0
    vertex 32.2243844304616 1.44175083851446 3.0
    vertex 34.1401221564372 -0.0282464205160353 3.0
  endloop
endfacet
facet normal -4.25976725539952e-32 -1.35538049035439e-32 1.0
  outer loop
    vertex 32.2243844304616 14.5232262904656 3.0
    vertex 34.1401221564372 -0.0282464205160353 3.0
    vertex 34.1401221564372 15.9932235494961 3.0
  endloop
endfacet
facet normal -4.25976725539952e-32 -1.35538049035439e-32 1.0
  outer loop
    vertex 34.1401221564372 15.9932235494961 3.0
    vertex 34.1401221564372 -0.0282464205160353 3.0
    vertex 36.3710459892388 -0.95232532868386 3.0
  endloop
endfacet
facet normal -4.25976725539952e-32 -1.35538049035439e-32 1.0
  outer loop
    vertex 34.1401221564372 15.9932235494961 3.0
    vertex 36.3710459892388 -0.95232532868386 3.0
    vertex 36.3710459892389 16.9173024576639 3.0
  endloop
endfacet
facet normal -4.25976725539952e-32 -1.35538049035439e-32 1.0
  outer loop
    vertex 36.3710459892389 16.9173024576639 3.0
    vertex 36.3710459892388 -0.95232532868386 3.0
    vertex 38.7651221564372 -1.26751143550998 3.0
  endloop
endfacet
facet normal -4.25976725539952e-32 -1.35538049035439e-32 1.0
  outer loop
    vertex 36.3710459892389 16.9173024576639 3.0
    vertex 38.7651221564372 -1.26751143550998 3.0
    vertex 38.7651221564372 17.23248856449 3.0
  endloop
endfacet
facet normal -4.25976725539952e-32 -1.35538049035439e-32 1.0
  outer loop
    vertex 38.7651221564372 17.23248856449 3.0
    vertex 38.7651221564372 -1.26751143550998 3.0
    vertex 41.1591983236355 -0.95232532868386 3.0
  endloop
endfacet
facet normal -4.25976725539952e-32 -1.35538049035439e-32 1.0
  outer loop
    vertex 38.7651221564372 17.23248856449 3.0
    vertex 41.1591983236355 -0.95232532868386 3.0
    vertex 41.1591983236355 16.9173024576639 3.0
  endloop
endfacet
facet normal -4.25976725539952e-32 -1.35538049035439e-32 1.0
  outer loop
    vertex 41.1591983236355 16.9173024576639 3.0
    vertex 41.1591983236355 -0.95232532868386 3.0
    vertex 43.3901221564372 -0.0282464205160381 3.0
  endloop
endfacet
facet normal -4.25976725539952e-32 -1.35538049035439e-32 1.0
  outer loop
    vertex 41.1591983236355 16.9173024576639 3.0
    vertex 43.3901221564372 -0.0282464205160381 3.0
    vertex 43.3901221564372 15.9932235494961 3.0
  endloop
endfacet
facet normal -4.25976725539952e-32 -1.35538049035439e-32 1.0
  outer loop
    vertex 43.3901221564372 15.9932235494961 3.0
    vertex 43.3901221564372 -0.0282464205160381 3.0
    vertex 45.3058598824127 1.44175083851446 3.0
  endloop
endfacet
facet normal -4.25976725539952e-32 -1.35538049035439e-32 1.0
  outer loop
    vertex 43.3901221564372 15.9932235494961 3.0
    vertex 45.3058598824127 1.44175083851446 3.0
    vertex 45.3058598824127 14.5232262904656 3.0
  endloop
endfacet
facet normal -4.25976725539952e-32 -1.35538049035439e-32 1.0
  outer loop
    vertex 45.3058598824127 14.5232262904656 3.0
    vertex 45.3058598824127 1.44175083851446 3.0
    vertex 46.7758571414432 3.35748856449002 3.0
  endloop
endfacet
facet normal -4.25976725539952e-32 -1.35538049035439e-32 1.0
  outer loop
    vertex 45.3058598824127 14.5232262904656 3.0
    vertex 46.7758571414432 3.35748856449002 3.0
    vertex 46.7758571414432 12.60748856449 3.0
  endloop
endfacet
facet normal -4.25976725539952e-32 -1.35538049035439e-32 1.0
  outer loop
    vertex 46.7758571414432 12.60748856449 3.0
    vertex 46.7758571414432 3.35748856449002 3.0
    vertex 47.699936049611 5.5884123972917 3.0
  endloop
endfacet
facet normal -4.25976725539952e-32 -1.35538049035439e-32 1.0
  outer loop
    vertex 46.7758571414432 12.60748856449 3.0
    vertex 47.699936049611 5.5884123972917 3.0
    vertex 47.699936049611 10.3765647316883 3.0
  endloop
endfacet
facet normal -4.25976725539952e-32 -1.35538049035439e-32 1.0
  outer loop
    vertex 47.699936049611 10.3765647316883 3.0
    vertex 47.699936049611 5.5884123972917 3.0
    vertex 48.0151221564372 7.98248856449002 3.0
  endloop
endfacet
facet normal 0.130526192220051 0.99144486137381 -0.0
  outer loop
    vertex 36.3710459892388 -0.95232532868386 13.0
    vertex 38.7651221564372 -1.26751143550998 3.0
    vertex 36.3710459892388 -0.95232532868386 3.0
  endloop
endfacet
facet normal 0.130526192220051 0.99144486137381 -0.0
  outer loop
    vertex 38.7651221564372 -1.26751143550998 3.0
    vertex 36.3710459892388 -0.95232532868386 13.0
    vertex 38.7651221564372 -1.26751143550998 13.0
  endloop
endfacet
facet normal 0.99144486137381 0.130526192220052 4.50945264060253e-18
  outer loop
    vertex 48.9532175334879 8.83248856449002 0.0
    vertex 49.0651221564372 7.98248856449002 13.0
    vertex 49.0651221564372 7.98248856449002 0.0
  endloop
endfacet
facet normal 0.99144486137381 0.130526192220052 4.50945264060253e-18
  outer loop
    vertex 49.0651221564372 7.98248856449002 13.0
    vertex 48.9532175334879 8.83248856449002 0.0
    vertex 48.7141581672146 10.648324729046 13.0
  endloop
endfacet
facet normal 0.99144486137381 0.130526192220052 4.50945264060253e-18
  outer loop
    vertex 48.7141581672146 10.648324729046 13.0
    vertex 48.9532175334879 8.83248856449002 0.0
    vertex 48.7141581672146 10.648324729046 0.0
  endloop
endfacet
endsolid tapon_switch_leds
