solid tapon_switch_leds
facet normal 0.0 1.0 0.0
  outer loop
    vertex 3.51523190694344 6.3890360107774 4.05710703208392
    vertex 9.7593576257587 6.38903601077686 5.89344054476364
    vertex 16.9352319069431 6.3890360107774 4.05710703208392
  endloop
endfacet
facet normal 0.0 1.0 0.0
  outer loop
    vertex 9.7593576257587 6.38903601077686 5.89344054476364
    vertex 3.51523190694344 6.3890360107774 4.05710703208392
    vertex 9.32523190694329 6.38903601077686 6.07326130527197
  endloop
endfacet
facet normal 0.0 1.0 0.0
  outer loop
    vertex 9.32523190694329 6.38903601077686 6.07326130527197
    vertex 3.51523190694344 6.3890360107774 4.05710703208392
    vertex 8.9524397008075 6.38903601077686 6.35931482594817
  endloop
endfacet
facet normal 0.0 1.0 0.0
  outer loop
    vertex 8.9524397008075 6.38903601077686 6.35931482594817
    vertex 3.51523190694344 6.3890360107774 4.05710703208392
    vertex 8.6663861801314 6.38903601077686 6.73210703208394
  endloop
endfacet
facet normal 0.0 1.0 0.0
  outer loop
    vertex 8.6663861801314 6.38903601077686 6.73210703208394
    vertex 3.51523190694344 6.3890360107774 4.05710703208392
    vertex 3.51523190694344 6.3890360107774 16.2071070320839
  endloop
endfacet
facet normal 0.0 1.0 0.0
  outer loop
    vertex 16.9352319069431 6.3890360107774 4.05710703208392
    vertex 9.7593576257587 6.38903601077686 5.89344054476364
    vertex 10.2252319069433 6.38903601077686 5.83210703208397
  endloop
endfacet
facet normal 0.0 1.0 0.0
  outer loop
    vertex 8.6663861801314 6.38903601077686 6.73210703208394
    vertex 3.51523190694344 6.3890360107774 16.2071070320839
    vertex 8.48656541962294 6.38903601077686 7.16623275089939
  endloop
endfacet
facet normal 0.0 1.0 0.0
  outer loop
    vertex 8.48656541962294 6.38903601077686 7.16623275089939
    vertex 3.51523190694344 6.3890360107774 16.2071070320839
    vertex 8.42523190694331 6.38903601077686 7.63210703208392
  endloop
endfacet
facet normal 0.0 1.0 0.0
  outer loop
    vertex 8.42523190694331 6.38903601077686 7.63210703208392
    vertex 3.51523190694344 6.3890360107774 16.2071070320839
    vertex 8.48656541962294 6.38903601077686 8.09798131326844
  endloop
endfacet
facet normal 0.0 1.0 0.0
  outer loop
    vertex 8.48656541962294 6.38903601077686 8.09798131326844
    vertex 3.51523190694344 6.3890360107774 16.2071070320839
    vertex 8.6663861801314 6.38903601077686 8.53210703208389
  endloop
endfacet
facet normal 0.0 1.0 0.0
  outer loop
    vertex 8.6663861801314 6.38903601077686 8.53210703208389
    vertex 3.51523190694344 6.3890360107774 16.2071070320839
    vertex 8.9524397008075 6.38903601077686 8.90489923821967
  endloop
endfacet
facet normal 0.0 1.0 0.0
  outer loop
    vertex 8.9524397008075 6.38903601077686 8.90489923821967
    vertex 3.51523190694344 6.3890360107774 16.2071070320839
    vertex 9.32523190694329 6.38903601077686 9.19095275889586
  endloop
endfacet
facet normal 0.0 1.0 0.0
  outer loop
    vertex 9.32523190694329 6.38903601077686 9.19095275889586
    vertex 3.51523190694344 6.3890360107774 16.2071070320839
    vertex 9.7593576257587 6.38903601077686 9.37077351940419
  endloop
endfacet
facet normal 0.0 1.0 0.0
  outer loop
    vertex 9.7593576257587 6.38903601077686 9.37077351940419
    vertex 3.51523190694344 6.3890360107774 16.2071070320839
    vertex 10.2252319069433 6.38903601077686 9.43210703208387
  endloop
endfacet
facet normal 0.0 1.0 0.0
  outer loop
    vertex 16.9352319069431 6.3890360107774 4.05710703208392
    vertex 11.7840776337551 6.38903601077686 6.73210703208394
    vertex 16.9352319069431 6.3890360107774 16.2071070320839
  endloop
endfacet
facet normal 0.0 1.0 0.0
  outer loop
    vertex 11.7840776337551 6.38903601077686 6.73210703208394
    vertex 16.9352319069431 6.3890360107774 4.05710703208392
    vertex 11.498024113079 6.38903601077686 6.35931482594817
  endloop
endfacet
facet normal 0.0 1.0 0.0
  outer loop
    vertex 11.498024113079 6.38903601077686 6.35931482594817
    vertex 16.9352319069431 6.3890360107774 4.05710703208392
    vertex 11.1252319069432 6.38903601077686 6.07326130527197
  endloop
endfacet
facet normal 0.0 1.0 0.0
  outer loop
    vertex 11.1252319069432 6.38903601077686 6.07326130527197
    vertex 16.9352319069431 6.3890360107774 4.05710703208392
    vertex 10.6911061881278 6.38903601077686 5.89344054476364
  endloop
endfacet
facet normal 0.0 1.0 0.0
  outer loop
    vertex 10.6911061881278 6.38903601077686 5.89344054476364
    vertex 16.9352319069431 6.3890360107774 4.05710703208392
    vertex 10.2252319069433 6.38903601077686 5.83210703208397
  endloop
endfacet
facet normal 0.0 1.0 0.0
  outer loop
    vertex 16.9352319069431 6.3890360107774 16.2071070320839
    vertex 11.7840776337551 6.38903601077686 6.73210703208394
    vertex 11.9638983942636 6.38903601077686 7.16623275089939
  endloop
endfacet
facet normal 0.0 1.0 0.0
  outer loop
    vertex 16.9352319069431 6.3890360107774 16.2071070320839
    vertex 11.9638983942636 6.38903601077686 7.16623275089939
    vertex 12.0252319069432 6.38903601077686 7.63210703208392
  endloop
endfacet
facet normal 0.0 1.0 0.0
  outer loop
    vertex 16.9352319069431 6.3890360107774 16.2071070320839
    vertex 12.0252319069432 6.38903601077686 7.63210703208392
    vertex 11.9638983942636 6.38903601077686 8.09798131326844
  endloop
endfacet
facet normal 0.0 1.0 0.0
  outer loop
    vertex 16.9352319069431 6.3890360107774 16.2071070320839
    vertex 11.9638983942636 6.38903601077686 8.09798131326844
    vertex 11.7840776337551 6.38903601077686 8.53210703208389
  endloop
endfacet
facet normal 0.0 1.0 0.0
  outer loop
    vertex 16.9352319069431 6.3890360107774 16.2071070320839
    vertex 11.7840776337551 6.38903601077686 8.53210703208389
    vertex 11.498024113079 6.38903601077686 8.90489923821967
  endloop
endfacet
facet normal 0.0 1.0 0.0
  outer loop
    vertex 16.9352319069431 6.3890360107774 16.2071070320839
    vertex 11.498024113079 6.38903601077686 8.90489923821967
    vertex 11.1252319069432 6.38903601077686 9.19095275889587
  endloop
endfacet
facet normal 0.0 1.0 0.0
  outer loop
    vertex 16.9352319069431 6.3890360107774 16.2071070320839
    vertex 11.1252319069432 6.38903601077686 9.19095275889587
    vertex 10.6911061881278 6.38903601077686 9.37077351940419
  endloop
endfacet
facet normal 0.0 1.0 0.0
  outer loop
    vertex 16.9352319069431 6.3890360107774 16.2071070320839
    vertex 10.6911061881278 6.38903601077686 9.37077351940419
    vertex 10.2252319069433 6.38903601077686 9.43210703208387
  endloop
endfacet
facet normal 0.0 1.0 0.0
  outer loop
    vertex 16.9352319069431 6.3890360107774 16.2071070320839
    vertex 10.2252319069433 6.38903601077686 9.43210703208387
    vertex 3.51523190694344 6.3890360107774 16.2071070320839
  endloop
endfacet
facet normal -0.0 -1.0 -0.0
  outer loop
    vertex 16.3540038772938 11.3245474827752 4.05710703208392
    vertex 13.5540038772939 11.3245474827752 0.0571070320839224
    vertex 16.3540038772938 11.3245474827752 0.0571070320839224
  endloop
endfacet
facet normal -0.0 -1.0 -0.0
  outer loop
    vertex 13.5540038772939 11.3245474827752 0.0571070320839224
    vertex 16.3540038772938 11.3245474827752 4.05710703208392
    vertex 13.5540038772939 11.3245474827752 4.05710703208392
  endloop
endfacet
facet normal 1.0 0.0 0.0
  outer loop
    vertex 3.51523190694344 13.5090360107773 4.05710703208392
    vertex 3.51523190694344 6.3890360107774 16.2071070320839
    vertex 3.51523190694344 6.3890360107774 4.05710703208392
  endloop
endfacet
facet normal 1.0 0.0 0.0
  outer loop
    vertex 3.51523190694344 6.3890360107774 16.2071070320839
    vertex 3.51523190694344 13.5090360107773 4.05710703208392
    vertex 3.51523190694344 13.5090360107773 16.2071070320839
  endloop
endfacet
facet normal 0.0 0.0 1.0
  outer loop
    vertex 3.51523190694344 6.3890360107774 4.05710703208392
    vertex 4.09049689067183 8.52454748277525 4.05710703208392
    vertex 3.51523190694344 13.5090360107773 4.05710703208392
  endloop
endfacet
facet normal 0.0 0.0 1.0
  outer loop
    vertex 4.09049689067183 8.52454748277525 4.05710703208392
    vertex 3.51523190694344 6.3890360107774 4.05710703208392
    vertex 16.9352319069431 6.3890360107774 4.05710703208392
  endloop
endfacet
facet normal 0.0 0.0 1.0
  outer loop
    vertex 4.09049689067183 8.52454748277525 4.05710703208392
    vertex 16.9352319069431 6.3890360107774 4.05710703208392
    vertex 6.89049689067178 8.52454748277525 4.05710703208392
  endloop
endfacet
facet normal 0.0 0.0 1.0
  outer loop
    vertex 6.89049689067178 8.52454748277525 4.05710703208392
    vertex 16.9352319069431 6.3890360107774 4.05710703208392
    vertex 8.82523190694338 8.52454748277525 4.05710703208392
  endloop
endfacet
facet normal 0.0 0.0 1.0
  outer loop
    vertex 6.89049689067178 8.52454748277525 4.05710703208392
    vertex 8.82523190694338 8.52454748277525 4.05710703208392
    vertex 6.89049689067178 11.3245474827752 4.05710703208392
  endloop
endfacet
facet normal 0.0 0.0 1.0
  outer loop
    vertex 8.82523190694338 8.52454748277525 4.05710703208392
    vertex 16.9352319069431 6.3890360107774 4.05710703208392
    vertex 11.6252319069433 8.52454748277525 4.05710703208392
  endloop
endfacet
facet normal 0.0 0.0 1.0
  outer loop
    vertex 11.6252319069433 8.52454748277525 4.05710703208392
    vertex 16.9352319069431 6.3890360107774 4.05710703208392
    vertex 13.5540038772939 8.52454748277525 4.05710703208392
  endloop
endfacet
facet normal 0.0 0.0 1.0
  outer loop
    vertex 11.6252319069433 8.52454748277525 4.05710703208392
    vertex 13.5540038772939 8.52454748277525 4.05710703208392
    vertex 11.6252319069433 11.3245474827752 4.05710703208392
  endloop
endfacet
facet normal 0.0 0.0 1.0
  outer loop
    vertex 13.5540038772939 8.52454748277525 4.05710703208392
    vertex 16.9352319069431 6.3890360107774 4.05710703208392
    vertex 16.3540038772938 8.52454748277525 4.05710703208392
  endloop
endfacet
facet normal 0.0 0.0 1.0
  outer loop
    vertex 16.3540038772938 8.52454748277525 4.05710703208392
    vertex 16.9352319069431 6.3890360107774 4.05710703208392
    vertex 16.3540038772938 11.3245474827752 4.05710703208392
  endloop
endfacet
facet normal 0.0 0.0 1.0
  outer loop
    vertex 3.51523190694344 13.5090360107773 4.05710703208392
    vertex 4.09049689067183 11.3245474827752 4.05710703208392
    vertex 16.9352319069431 13.5090360107773 4.05710703208392
  endloop
endfacet
facet normal 0.0 0.0 1.0
  outer loop
    vertex 4.09049689067183 11.3245474827752 4.05710703208392
    vertex 3.51523190694344 13.5090360107773 4.05710703208392
    vertex 4.09049689067183 8.52454748277525 4.05710703208392
  endloop
endfacet
facet normal 0.0 0.0 1.0
  outer loop
    vertex 16.9352319069431 13.5090360107773 4.05710703208392
    vertex 4.09049689067183 11.3245474827752 4.05710703208392
    vertex 6.89049689067178 11.3245474827752 4.05710703208392
  endloop
endfacet
facet normal 0.0 0.0 1.0
  outer loop
    vertex 16.9352319069431 13.5090360107773 4.05710703208392
    vertex 6.89049689067178 11.3245474827752 4.05710703208392
    vertex 8.82523190694338 11.3245474827752 4.05710703208392
  endloop
endfacet
facet normal 0.0 0.0 1.0
  outer loop
    vertex 8.82523190694338 11.3245474827752 4.05710703208392
    vertex 6.89049689067178 11.3245474827752 4.05710703208392
    vertex 8.82523190694338 8.52454748277525 4.05710703208392
  endloop
endfacet
facet normal 0.0 0.0 1.0
  outer loop
    vertex 16.9352319069431 13.5090360107773 4.05710703208392
    vertex 8.82523190694338 11.3245474827752 4.05710703208392
    vertex 11.6252319069433 11.3245474827752 4.05710703208392
  endloop
endfacet
facet normal 0.0 0.0 1.0
  outer loop
    vertex 16.9352319069431 13.5090360107773 4.05710703208392
    vertex 11.6252319069433 11.3245474827752 4.05710703208392
    vertex 13.5540038772939 11.3245474827752 4.05710703208392
  endloop
endfacet
facet normal 0.0 0.0 1.0
  outer loop
    vertex 13.5540038772939 11.3245474827752 4.05710703208392
    vertex 11.6252319069433 11.3245474827752 4.05710703208392
    vertex 13.5540038772939 8.52454748277525 4.05710703208392
  endloop
endfacet
facet normal 0.0 0.0 1.0
  outer loop
    vertex 16.9352319069431 13.5090360107773 4.05710703208392
    vertex 13.5540038772939 11.3245474827752 4.05710703208392
    vertex 16.3540038772938 11.3245474827752 4.05710703208392
  endloop
endfacet
facet normal 0.0 0.0 1.0
  outer loop
    vertex 16.9352319069431 13.5090360107773 4.05710703208392
    vertex 16.3540038772938 11.3245474827752 4.05710703208392
    vertex 16.9352319069431 6.3890360107774 4.05710703208392
  endloop
endfacet
facet normal 0.0 -1.0 0.0
  outer loop
    vertex 16.9352319069431 13.5090360107773 4.05710703208392
    vertex 10.6911061881278 13.5090360107775 5.89344054476364
    vertex 3.51523190694344 13.5090360107773 4.05710703208392
  endloop
endfacet
facet normal 0.0 -1.0 0.0
  outer loop
    vertex 10.6911061881278 13.5090360107775 5.89344054476364
    vertex 16.9352319069431 13.5090360107773 4.05710703208392
    vertex 11.1252319069432 13.5090360107775 6.07326130527197
  endloop
endfacet
facet normal 0.0 -1.0 0.0
  outer loop
    vertex 11.1252319069432 13.5090360107775 6.07326130527197
    vertex 16.9352319069431 13.5090360107773 4.05710703208392
    vertex 11.498024113079 13.5090360107775 6.35931482594817
  endloop
endfacet
facet normal 0.0 -1.0 0.0
  outer loop
    vertex 11.498024113079 13.5090360107775 6.35931482594817
    vertex 16.9352319069431 13.5090360107773 4.05710703208392
    vertex 11.7840776337551 13.5090360107775 6.73210703208394
  endloop
endfacet
facet normal 0.0 -1.0 0.0
  outer loop
    vertex 11.7840776337551 13.5090360107775 6.73210703208394
    vertex 16.9352319069431 13.5090360107773 4.05710703208392
    vertex 16.9352319069431 13.5090360107773 16.2071070320839
  endloop
endfacet
facet normal 0.0 -1.0 0.0
  outer loop
    vertex 3.51523190694344 13.5090360107773 4.05710703208392
    vertex 10.6911061881278 13.5090360107775 5.89344054476364
    vertex 10.2252319069433 13.5090360107775 5.83210703208397
  endloop
endfacet
facet normal 0.0 -1.0 0.0
  outer loop
    vertex 11.7840776337551 13.5090360107775 6.73210703208394
    vertex 16.9352319069431 13.5090360107773 16.2071070320839
    vertex 11.9638983942636 13.5090360107775 7.16623275089939
  endloop
endfacet
facet normal 0.0 -1.0 0.0
  outer loop
    vertex 11.9638983942636 13.5090360107775 7.16623275089939
    vertex 16.9352319069431 13.5090360107773 16.2071070320839
    vertex 12.0252319069432 13.5090360107775 7.63210703208392
  endloop
endfacet
facet normal 0.0 -1.0 0.0
  outer loop
    vertex 12.0252319069432 13.5090360107775 7.63210703208392
    vertex 16.9352319069431 13.5090360107773 16.2071070320839
    vertex 11.9638983942636 13.5090360107775 8.09798131326844
  endloop
endfacet
facet normal 0.0 -1.0 0.0
  outer loop
    vertex 11.9638983942636 13.5090360107775 8.09798131326844
    vertex 16.9352319069431 13.5090360107773 16.2071070320839
    vertex 11.7840776337551 13.5090360107775 8.53210703208389
  endloop
endfacet
facet normal 0.0 -1.0 0.0
  outer loop
    vertex 11.7840776337551 13.5090360107775 8.53210703208389
    vertex 16.9352319069431 13.5090360107773 16.2071070320839
    vertex 11.498024113079 13.5090360107775 8.90489923821967
  endloop
endfacet
facet normal 0.0 -1.0 0.0
  outer loop
    vertex 11.498024113079 13.5090360107775 8.90489923821967
    vertex 16.9352319069431 13.5090360107773 16.2071070320839
    vertex 11.1252319069432 13.5090360107775 9.19095275889586
  endloop
endfacet
facet normal 0.0 -1.0 0.0
  outer loop
    vertex 11.1252319069432 13.5090360107775 9.19095275889586
    vertex 16.9352319069431 13.5090360107773 16.2071070320839
    vertex 10.6911061881278 13.5090360107775 9.37077351940419
  endloop
endfacet
facet normal 0.0 -1.0 0.0
  outer loop
    vertex 10.6911061881278 13.5090360107775 9.37077351940419
    vertex 16.9352319069431 13.5090360107773 16.2071070320839
    vertex 10.2252319069433 13.5090360107775 9.43210703208387
  endloop
endfacet
facet normal 0.0 -1.0 0.0
  outer loop
    vertex 3.51523190694344 13.5090360107773 4.05710703208392
    vertex 8.6663861801314 13.5090360107775 6.73210703208394
    vertex 3.51523190694344 13.5090360107773 16.2071070320839
  endloop
endfacet
facet normal 0.0 -1.0 0.0
  outer loop
    vertex 8.6663861801314 13.5090360107775 6.73210703208394
    vertex 3.51523190694344 13.5090360107773 4.05710703208392
    vertex 8.9524397008075 13.5090360107775 6.35931482594817
  endloop
endfacet
facet normal 0.0 -1.0 0.0
  outer loop
    vertex 8.9524397008075 13.5090360107775 6.35931482594817
    vertex 3.51523190694344 13.5090360107773 4.05710703208392
    vertex 9.32523190694329 13.5090360107775 6.07326130527197
  endloop
endfacet
facet normal 0.0 -1.0 0.0
  outer loop
    vertex 9.32523190694329 13.5090360107775 6.07326130527197
    vertex 3.51523190694344 13.5090360107773 4.05710703208392
    vertex 9.7593576257587 13.5090360107775 5.89344054476364
  endloop
endfacet
facet normal 0.0 -1.0 0.0
  outer loop
    vertex 9.7593576257587 13.5090360107775 5.89344054476364
    vertex 3.51523190694344 13.5090360107773 4.05710703208392
    vertex 10.2252319069433 13.5090360107775 5.83210703208397
  endloop
endfacet
facet normal 0.0 -1.0 0.0
  outer loop
    vertex 3.51523190694344 13.5090360107773 16.2071070320839
    vertex 8.6663861801314 13.5090360107775 6.73210703208394
    vertex 8.48656541962294 13.5090360107775 7.16623275089939
  endloop
endfacet
facet normal 0.0 -1.0 0.0
  outer loop
    vertex 3.51523190694344 13.5090360107773 16.2071070320839
    vertex 8.48656541962294 13.5090360107775 7.16623275089939
    vertex 8.42523190694331 13.5090360107775 7.63210703208392
  endloop
endfacet
facet normal 0.0 -1.0 0.0
  outer loop
    vertex 3.51523190694344 13.5090360107773 16.2071070320839
    vertex 8.42523190694331 13.5090360107775 7.63210703208392
    vertex 8.48656541962294 13.5090360107775 8.09798131326844
  endloop
endfacet
facet normal 0.0 -1.0 0.0
  outer loop
    vertex 3.51523190694344 13.5090360107773 16.2071070320839
    vertex 8.48656541962294 13.5090360107775 8.09798131326844
    vertex 8.6663861801314 13.5090360107775 8.53210703208389
  endloop
endfacet
facet normal 0.0 -1.0 0.0
  outer loop
    vertex 3.51523190694344 13.5090360107773 16.2071070320839
    vertex 8.6663861801314 13.5090360107775 8.53210703208389
    vertex 8.9524397008075 13.5090360107775 8.90489923821967
  endloop
endfacet
facet normal 0.0 -1.0 0.0
  outer loop
    vertex 3.51523190694344 13.5090360107773 16.2071070320839
    vertex 8.9524397008075 13.5090360107775 8.90489923821967
    vertex 9.32523190694329 13.5090360107775 9.19095275889586
  endloop
endfacet
facet normal 0.0 -1.0 0.0
  outer loop
    vertex 3.51523190694344 13.5090360107773 16.2071070320839
    vertex 9.32523190694329 13.5090360107775 9.19095275889586
    vertex 9.7593576257587 13.5090360107775 9.37077351940419
  endloop
endfacet
facet normal 0.0 -1.0 0.0
  outer loop
    vertex 3.51523190694344 13.5090360107773 16.2071070320839
    vertex 9.7593576257587 13.5090360107775 9.37077351940419
    vertex 10.2252319069433 13.5090360107775 9.43210703208387
  endloop
endfacet
facet normal 0.0 -1.0 0.0
  outer loop
    vertex 3.51523190694344 13.5090360107773 16.2071070320839
    vertex 10.2252319069433 13.5090360107775 9.43210703208387
    vertex 16.9352319069431 13.5090360107773 16.2071070320839
  endloop
endfacet
facet normal -1.0 0.0 0.0
  outer loop
    vertex 16.9352319069431 13.5090360107773 16.2071070320839
    vertex 16.9352319069431 6.3890360107774 4.05710703208392
    vertex 16.9352319069431 6.3890360107774 16.2071070320839
  endloop
endfacet
facet normal -1.0 0.0 0.0
  outer loop
    vertex 16.9352319069431 6.3890360107774 4.05710703208392
    vertex 16.9352319069431 13.5090360107773 16.2071070320839
    vertex 16.9352319069431 13.5090360107773 4.05710703208392
  endloop
endfacet
facet normal -0.0 -1.0 -0.0
  outer loop
    vertex 6.89049689067178 11.3245474827752 4.05710703208392
    vertex 4.09049689067183 11.3245474827752 0.0571070320839224
    vertex 6.89049689067178 11.3245474827752 0.0571070320839224
  endloop
endfacet
facet normal -0.0 -1.0 -0.0
  outer loop
    vertex 4.09049689067183 11.3245474827752 0.0571070320839224
    vertex 6.89049689067178 11.3245474827752 4.05710703208392
    vertex 4.09049689067183 11.3245474827752 4.05710703208392
  endloop
endfacet
facet normal 1.0 0.0 0.0
  outer loop
    vertex 4.09049689067183 11.3245474827752 0.0571070320839224
    vertex 4.09049689067183 8.52454748277525 4.05710703208392
    vertex 4.09049689067183 8.52454748277525 0.0571070320839224
  endloop
endfacet
facet normal 1.0 0.0 0.0
  outer loop
    vertex 4.09049689067183 8.52454748277525 4.05710703208392
    vertex 4.09049689067183 11.3245474827752 0.0571070320839224
    vertex 4.09049689067183 11.3245474827752 4.05710703208392
  endloop
endfacet
facet normal -1.0 0.0 0.0
  outer loop
    vertex 6.89049689067178 11.3245474827752 4.05710703208392
    vertex 6.89049689067178 8.52454748277525 0.0571070320839224
    vertex 6.89049689067178 8.52454748277525 4.05710703208392
  endloop
endfacet
facet normal -1.0 0.0 0.0
  outer loop
    vertex 6.89049689067178 8.52454748277525 0.0571070320839224
    vertex 6.89049689067178 11.3245474827752 4.05710703208392
    vertex 6.89049689067178 11.3245474827752 0.0571070320839224
  endloop
endfacet
facet normal 0.0 1.0 0.0
  outer loop
    vertex 4.09049689067183 8.52454748277525 4.05710703208392
    vertex 6.89049689067178 8.52454748277525 0.0571070320839224
    vertex 4.09049689067183 8.52454748277525 0.0571070320839224
  endloop
endfacet
facet normal 0.0 1.0 0.0
  outer loop
    vertex 6.89049689067178 8.52454748277525 0.0571070320839224
    vertex 4.09049689067183 8.52454748277525 4.05710703208392
    vertex 6.89049689067178 8.52454748277525 4.05710703208392
  endloop
endfacet
facet normal 1.0 0.0 0.0
  outer loop
    vertex 13.5540038772939 11.3245474827752 0.0571070320839224
    vertex 13.5540038772939 8.52454748277525 4.05710703208392
    vertex 13.5540038772939 8.52454748277525 0.0571070320839224
  endloop
endfacet
facet normal 1.0 0.0 0.0
  outer loop
    vertex 13.5540038772939 8.52454748277525 4.05710703208392
    vertex 13.5540038772939 11.3245474827752 0.0571070320839224
    vertex 13.5540038772939 11.3245474827752 4.05710703208392
  endloop
endfacet
facet normal 0.0 1.0 0.0
  outer loop
    vertex 13.5540038772939 8.52454748277525 4.05710703208392
    vertex 16.3540038772938 8.52454748277525 0.0571070320839224
    vertex 13.5540038772939 8.52454748277525 0.0571070320839224
  endloop
endfacet
facet normal 0.0 1.0 0.0
  outer loop
    vertex 16.3540038772938 8.52454748277525 0.0571070320839224
    vertex 13.5540038772939 8.52454748277525 4.05710703208392
    vertex 16.3540038772938 8.52454748277525 4.05710703208392
  endloop
endfacet
facet normal -1.0 0.0 0.0
  outer loop
    vertex 16.3540038772938 11.3245474827752 4.05710703208392
    vertex 16.3540038772938 8.52454748277525 0.0571070320839224
    vertex 16.3540038772938 8.52454748277525 4.05710703208392
  endloop
endfacet
facet normal -1.0 0.0 0.0
  outer loop
    vertex 16.3540038772938 8.52454748277525 0.0571070320839224
    vertex 16.3540038772938 11.3245474827752 4.05710703208392
    vertex 16.3540038772938 11.3245474827752 0.0571070320839224
  endloop
endfacet
facet normal -1.0 0.0 0.0
  outer loop
    vertex 11.6252319069433 11.3245474827752 4.05710703208392
    vertex 11.6252319069433 8.52454748277525 0.0571070320839224
    vertex 11.6252319069433 8.52454748277525 4.05710703208392
  endloop
endfacet
facet normal -1.0 0.0 0.0
  outer loop
    vertex 11.6252319069433 8.52454748277525 0.0571070320839224
    vertex 11.6252319069433 11.3245474827752 4.05710703208392
    vertex 11.6252319069433 11.3245474827752 0.0571070320839224
  endloop
endfacet
facet normal -0.0 -1.0 -0.0
  outer loop
    vertex 11.6252319069433 11.3245474827752 4.05710703208392
    vertex 8.82523190694338 11.3245474827752 0.0571070320839224
    vertex 11.6252319069433 11.3245474827752 0.0571070320839224
  endloop
endfacet
facet normal -0.0 -1.0 -0.0
  outer loop
    vertex 8.82523190694338 11.3245474827752 0.0571070320839224
    vertex 11.6252319069433 11.3245474827752 4.05710703208392
    vertex 8.82523190694338 11.3245474827752 4.05710703208392
  endloop
endfacet
facet normal 1.0 0.0 0.0
  outer loop
    vertex 8.82523190694338 11.3245474827752 0.0571070320839224
    vertex 8.82523190694338 8.52454748277525 4.05710703208392
    vertex 8.82523190694338 8.52454748277525 0.0571070320839224
  endloop
endfacet
facet normal 1.0 0.0 0.0
  outer loop
    vertex 8.82523190694338 8.52454748277525 4.05710703208392
    vertex 8.82523190694338 11.3245474827752 0.0571070320839224
    vertex 8.82523190694338 11.3245474827752 4.05710703208392
  endloop
endfacet
facet normal 0.0 1.0 0.0
  outer loop
    vertex 8.82523190694338 8.52454748277525 4.05710703208392
    vertex 11.6252319069433 8.52454748277525 0.0571070320839224
    vertex 8.82523190694338 8.52454748277525 0.0571070320839224
  endloop
endfacet
facet normal 0.0 1.0 0.0
  outer loop
    vertex 11.6252319069433 8.52454748277525 0.0571070320839224
    vertex 8.82523190694338 8.52454748277525 4.05710703208392
    vertex 11.6252319069433 8.52454748277525 4.05710703208392
  endloop
endfacet
facet normal 0.0 0.0 1.0
  outer loop
    vertex 0.276195896165891 7.28319984622136 16.2071070320839
    vertex 0.276195896165891 12.6148721753334 16.2071070320839
    vertex -0.074768093056739 9.94903601077737 16.2071070320839
  endloop
endfacet
facet normal 0.0 0.0 1.0
  outer loop
    vertex 0.276195896165891 12.6148721753334 16.2071070320839
    vertex 0.276195896165891 7.28319984622136 16.2071070320839
    vertex 1.30517024796356 4.79903601077746 16.2071070320839
  endloop
endfacet
facet normal 0.0 0.0 1.0
  outer loop
    vertex 0.276195896165891 12.6148721753334 16.2071070320839
    vertex 1.30517024796356 4.79903601077746 16.2071070320839
    vertex 1.30517024796356 15.0990360107775 16.2071070320839
  endloop
endfacet
facet normal 0.0 0.0 1.0
  outer loop
    vertex 1.30517024796356 15.0990360107775 16.2071070320839
    vertex 1.30517024796356 4.79903601077746 16.2071070320839
    vertex 2.9420320607219 2.66583616455601 16.2071070320839
  endloop
endfacet
facet normal 0.0 0.0 1.0
  outer loop
    vertex 1.30517024796356 15.0990360107775 16.2071070320839
    vertex 2.9420320607219 2.66583616455601 16.2071070320839
    vertex 2.9420320607219 17.2322358569987 16.2071070320839
  endloop
endfacet
facet normal 0.0 0.0 1.0
  outer loop
    vertex 2.9420320607219 17.2322358569987 16.2071070320839
    vertex 2.9420320607219 2.66583616455601 16.2071070320839
    vertex 3.51523190694344 6.3890360107774 16.2071070320839
  endloop
endfacet
facet normal 0.0 0.0 1.0
  outer loop
    vertex 3.51523190694344 6.3890360107774 16.2071070320839
    vertex 2.9420320607219 2.66583616455601 16.2071070320839
    vertex 5.07523190694317 1.02897435179767 16.2071070320839
  endloop
endfacet
facet normal 0.0 0.0 1.0
  outer loop
    vertex 3.51523190694344 6.3890360107774 16.2071070320839
    vertex 5.07523190694317 1.02897435179767 16.2071070320839
    vertex 16.9352319069431 6.3890360107774 16.2071070320839
  endloop
endfacet
facet normal 0.0 0.0 1.0
  outer loop
    vertex 16.9352319069431 6.3890360107774 16.2071070320839
    vertex 5.07523190694317 1.02897435179767 16.2071070320839
    vertex 7.55939574238725 0.0 16.2071070320839
  endloop
endfacet
facet normal 0.0 0.0 1.0
  outer loop
    vertex 16.9352319069431 6.3890360107774 16.2071070320839
    vertex 7.55939574238725 0.0 16.2071070320839
    vertex 12.8910680714993 0.0 16.2071070320839
  endloop
endfacet
facet normal 0.0 0.0 1.0
  outer loop
    vertex 16.9352319069431 6.3890360107774 16.2071070320839
    vertex 12.8910680714993 0.0 16.2071070320839
    vertex 15.3752319069432 1.02897435179767 16.2071070320839
  endloop
endfacet
facet normal 0.0 0.0 1.0
  outer loop
    vertex 16.9352319069431 6.3890360107774 16.2071070320839
    vertex 15.3752319069432 1.02897435179767 16.2071070320839
    vertex 17.5084317531646 2.66583616455601 16.2071070320839
  endloop
endfacet
facet normal 0.0 0.0 1.0
  outer loop
    vertex 16.9352319069431 6.3890360107774 16.2071070320839
    vertex 17.5084317531646 2.66583616455601 16.2071070320839
    vertex 16.9352319069431 13.5090360107773 16.2071070320839
  endloop
endfacet
facet normal 0.0 0.0 1.0
  outer loop
    vertex 2.9420320607219 17.2322358569987 16.2071070320839
    vertex 3.51523190694344 13.5090360107773 16.2071070320839
    vertex 5.07523190694335 18.8690976697571 16.2071070320839
  endloop
endfacet
facet normal 0.0 0.0 1.0
  outer loop
    vertex 3.51523190694344 13.5090360107773 16.2071070320839
    vertex 2.9420320607219 17.2322358569987 16.2071070320839
    vertex 3.51523190694344 6.3890360107774 16.2071070320839
  endloop
endfacet
facet normal 0.0 0.0 1.0
  outer loop
    vertex 5.07523190694335 18.8690976697571 16.2071070320839
    vertex 3.51523190694344 13.5090360107773 16.2071070320839
    vertex 16.9352319069431 13.5090360107773 16.2071070320839
  endloop
endfacet
facet normal 0.0 0.0 1.0
  outer loop
    vertex 5.07523190694335 18.8690976697571 16.2071070320839
    vertex 16.9352319069431 13.5090360107773 16.2071070320839
    vertex 7.55939574238725 19.8980720215547 16.2071070320839
  endloop
endfacet
facet normal 0.0 0.0 1.0
  outer loop
    vertex 7.55939574238725 19.8980720215547 16.2071070320839
    vertex 16.9352319069431 13.5090360107773 16.2071070320839
    vertex 12.8910680714993 19.8980720215547 16.2071070320839
  endloop
endfacet
facet normal 0.0 0.0 1.0
  outer loop
    vertex 12.8910680714993 19.8980720215547 16.2071070320839
    vertex 16.9352319069431 13.5090360107773 16.2071070320839
    vertex 15.3752319069434 18.8690976697571 16.2071070320839
  endloop
endfacet
facet normal 0.0 0.0 1.0
  outer loop
    vertex 15.3752319069434 18.8690976697571 16.2071070320839
    vertex 16.9352319069431 13.5090360107773 16.2071070320839
    vertex 17.5084317531646 17.2322358569987 16.2071070320839
  endloop
endfacet
facet normal 0.0 0.0 1.0
  outer loop
    vertex 17.5084317531646 17.2322358569987 16.2071070320839
    vertex 16.9352319069431 13.5090360107773 16.2071070320839
    vertex 17.5084317531646 2.66583616455601 16.2071070320839
  endloop
endfacet
facet normal 0.0 0.0 1.0
  outer loop
    vertex 17.5084317531646 17.2322358569987 16.2071070320839
    vertex 17.5084317531646 2.66583616455601 16.2071070320839
    vertex 19.145293565923 4.79903601077728 16.2071070320839
  endloop
endfacet
facet normal 0.0 0.0 1.0
  outer loop
    vertex 17.5084317531646 17.2322358569987 16.2071070320839
    vertex 19.145293565923 4.79903601077728 16.2071070320839
    vertex 19.145293565923 15.0990360107773 16.2071070320839
  endloop
endfacet
facet normal 0.0 0.0 1.0
  outer loop
    vertex 19.145293565923 15.0990360107773 16.2071070320839
    vertex 19.145293565923 4.79903601077728 16.2071070320839
    vertex 20.1742679177206 7.28319984622136 16.2071070320839
  endloop
endfacet
facet normal 0.0 0.0 1.0
  outer loop
    vertex 19.145293565923 15.0990360107773 16.2071070320839
    vertex 20.1742679177206 7.28319984622136 16.2071070320839
    vertex 20.1742679177206 12.6148721753334 16.2071070320839
  endloop
endfacet
facet normal 0.0 0.0 1.0
  outer loop
    vertex 20.1742679177206 12.6148721753334 16.2071070320839
    vertex 20.1742679177206 7.28319984622136 16.2071070320839
    vertex 20.5252319069433 9.94903601077737 16.2071070320839
  endloop
endfacet
facet normal 0.0 0.0 -1.0
  outer loop
    vertex 7.55939574238725 0.0 0.0571070320839175
    vertex 8.82523190694338 8.52454748277525 0.0571070320839224
    vertex 12.8910680714993 0.0 0.0571070320839175
  endloop
endfacet
facet normal 0.0 0.0 -1.0
  outer loop
    vertex 8.82523190694338 8.52454748277525 0.0571070320839224
    vertex 7.55939574238725 0.0 0.0571070320839175
    vertex 8.82523190694338 11.3245474827752 0.0571070320839224
  endloop
endfacet
facet normal 0.0 0.0 -1.0
  outer loop
    vertex 12.8910680714993 0.0 0.0571070320839175
    vertex 8.82523190694338 8.52454748277525 0.0571070320839224
    vertex 11.6252319069433 8.52454748277525 0.0571070320839224
  endloop
endfacet
facet normal 0.0 0.0 -1.0
  outer loop
    vertex 12.8910680714993 0.0 0.0571070320839175
    vertex 11.6252319069433 8.52454748277525 0.0571070320839224
    vertex 12.8910680714993 19.8980720215547 0.0571070320839175
  endloop
endfacet
facet normal 0.0 0.0 -1.0
  outer loop
    vertex 12.8910680714993 0.0 0.0571070320839175
    vertex 12.8910680714993 19.8980720215547 0.0571070320839175
    vertex 13.5540038772939 11.3245474827752 0.0571070320839224
  endloop
endfacet
facet normal 0.0 0.0 -1.0
  outer loop
    vertex 13.5540038772939 11.3245474827752 0.0571070320839224
    vertex 12.8910680714993 19.8980720215547 0.0571070320839175
    vertex 15.3752319069434 18.8690976697571 0.0571070320839175
  endloop
endfacet
facet normal 0.0 0.0 -1.0
  outer loop
    vertex 13.5540038772939 11.3245474827752 0.0571070320839224
    vertex 15.3752319069434 18.8690976697571 0.0571070320839175
    vertex 16.3540038772938 11.3245474827752 0.0571070320839224
  endloop
endfacet
facet normal 0.0 0.0 -1.0
  outer loop
    vertex 16.3540038772938 11.3245474827752 0.0571070320839224
    vertex 15.3752319069434 18.8690976697571 0.0571070320839175
    vertex 17.5084317531646 17.2322358569987 0.0571070320839175
  endloop
endfacet
facet normal 0.0 0.0 -1.0
  outer loop
    vertex 16.3540038772938 11.3245474827752 0.0571070320839224
    vertex 17.5084317531646 17.2322358569987 0.0571070320839175
    vertex 16.3540038772938 8.52454748277525 0.0571070320839224
  endloop
endfacet
facet normal 0.0 0.0 -1.0
  outer loop
    vertex 12.8910680714993 0.0 0.0571070320839175
    vertex 13.5540038772939 8.52454748277525 0.0571070320839224
    vertex 15.3752319069432 1.02897435179767 0.0571070320839175
  endloop
endfacet
facet normal 0.0 0.0 -1.0
  outer loop
    vertex 13.5540038772939 8.52454748277525 0.0571070320839224
    vertex 12.8910680714993 0.0 0.0571070320839175
    vertex 13.5540038772939 11.3245474827752 0.0571070320839224
  endloop
endfacet
facet normal 0.0 0.0 -1.0
  outer loop
    vertex 15.3752319069432 1.02897435179767 0.0571070320839175
    vertex 13.5540038772939 8.52454748277525 0.0571070320839224
    vertex 16.3540038772938 8.52454748277525 0.0571070320839224
  endloop
endfacet
facet normal 0.0 0.0 -1.0
  outer loop
    vertex 15.3752319069432 1.02897435179767 0.0571070320839175
    vertex 16.3540038772938 8.52454748277525 0.0571070320839224
    vertex 17.5084317531646 2.66583616455601 0.0571070320839175
  endloop
endfacet
facet normal 0.0 0.0 -1.0
  outer loop
    vertex 17.5084317531646 2.66583616455601 0.0571070320839175
    vertex 16.3540038772938 8.52454748277525 0.0571070320839224
    vertex 17.5084317531646 17.2322358569987 0.0571070320839175
  endloop
endfacet
facet normal 0.0 0.0 -1.0
  outer loop
    vertex 17.5084317531646 2.66583616455601 0.0571070320839175
    vertex 17.5084317531646 17.2322358569987 0.0571070320839175
    vertex 19.145293565923 15.0990360107773 0.0571070320839175
  endloop
endfacet
facet normal 0.0 0.0 -1.0
  outer loop
    vertex 17.5084317531646 2.66583616455601 0.0571070320839175
    vertex 19.145293565923 15.0990360107773 0.0571070320839175
    vertex 19.145293565923 4.79903601077728 0.0571070320839175
  endloop
endfacet
facet normal 0.0 0.0 -1.0
  outer loop
    vertex 19.145293565923 4.79903601077728 0.0571070320839175
    vertex 19.145293565923 15.0990360107773 0.0571070320839175
    vertex 20.1742679177206 12.6148721753334 0.0571070320839175
  endloop
endfacet
facet normal 0.0 0.0 -1.0
  outer loop
    vertex 19.145293565923 4.79903601077728 0.0571070320839175
    vertex 20.1742679177206 12.6148721753334 0.0571070320839175
    vertex 20.1742679177206 7.28319984622136 0.0571070320839175
  endloop
endfacet
facet normal 0.0 0.0 -1.0
  outer loop
    vertex 20.1742679177206 7.28319984622136 0.0571070320839175
    vertex 20.1742679177206 12.6148721753334 0.0571070320839175
    vertex 20.5252319069433 9.94903601077737 0.0571070320839175
  endloop
endfacet
facet normal 0.0 0.0 -1.0
  outer loop
    vertex 2.9420320607219 2.66583616455601 0.0571070320839175
    vertex 4.09049689067183 8.52454748277525 0.0571070320839224
    vertex 5.07523190694317 1.02897435179767 0.0571070320839175
  endloop
endfacet
facet normal 0.0 0.0 -1.0
  outer loop
    vertex 4.09049689067183 8.52454748277525 0.0571070320839224
    vertex 2.9420320607219 2.66583616455601 0.0571070320839175
    vertex 4.09049689067183 11.3245474827752 0.0571070320839224
  endloop
endfacet
facet normal 0.0 0.0 -1.0
  outer loop
    vertex 5.07523190694317 1.02897435179767 0.0571070320839175
    vertex 4.09049689067183 8.52454748277525 0.0571070320839224
    vertex 6.89049689067178 8.52454748277525 0.0571070320839224
  endloop
endfacet
facet normal 0.0 0.0 -1.0
  outer loop
    vertex 5.07523190694317 1.02897435179767 0.0571070320839175
    vertex 6.89049689067178 8.52454748277525 0.0571070320839224
    vertex 7.55939574238725 0.0 0.0571070320839175
  endloop
endfacet
facet normal 0.0 0.0 -1.0
  outer loop
    vertex 7.55939574238725 0.0 0.0571070320839175
    vertex 6.89049689067178 8.52454748277525 0.0571070320839224
    vertex 7.55939574238725 19.8980720215547 0.0571070320839175
  endloop
endfacet
facet normal 0.0 0.0 -1.0
  outer loop
    vertex 7.55939574238725 0.0 0.0571070320839175
    vertex 7.55939574238725 19.8980720215547 0.0571070320839175
    vertex 8.82523190694338 11.3245474827752 0.0571070320839224
  endloop
endfacet
facet normal 0.0 0.0 -1.0
  outer loop
    vertex 8.82523190694338 11.3245474827752 0.0571070320839224
    vertex 7.55939574238725 19.8980720215547 0.0571070320839175
    vertex 12.8910680714993 19.8980720215547 0.0571070320839175
  endloop
endfacet
facet normal 0.0 0.0 -1.0
  outer loop
    vertex 8.82523190694338 11.3245474827752 0.0571070320839224
    vertex 12.8910680714993 19.8980720215547 0.0571070320839175
    vertex 11.6252319069433 11.3245474827752 0.0571070320839224
  endloop
endfacet
facet normal 0.0 0.0 -1.0
  outer loop
    vertex 11.6252319069433 11.3245474827752 0.0571070320839224
    vertex 12.8910680714993 19.8980720215547 0.0571070320839175
    vertex 11.6252319069433 8.52454748277525 0.0571070320839224
  endloop
endfacet
facet normal 0.0 0.0 -1.0
  outer loop
    vertex 0.276195896165891 12.6148721753334 0.0571070320839175
    vertex 0.276195896165891 7.28319984622136 0.0571070320839175
    vertex -0.074768093056739 9.94903601077737 0.0571070320839175
  endloop
endfacet
facet normal 0.0 0.0 -1.0
  outer loop
    vertex 0.276195896165891 7.28319984622136 0.0571070320839175
    vertex 0.276195896165891 12.6148721753334 0.0571070320839175
    vertex 1.30517024796356 15.0990360107775 0.0571070320839175
  endloop
endfacet
facet normal 0.0 0.0 -1.0
  outer loop
    vertex 0.276195896165891 7.28319984622136 0.0571070320839175
    vertex 1.30517024796356 15.0990360107775 0.0571070320839175
    vertex 1.30517024796356 4.79903601077746 0.0571070320839175
  endloop
endfacet
facet normal 0.0 0.0 -1.0
  outer loop
    vertex 1.30517024796356 4.79903601077746 0.0571070320839175
    vertex 1.30517024796356 15.0990360107775 0.0571070320839175
    vertex 2.9420320607219 17.2322358569987 0.0571070320839175
  endloop
endfacet
facet normal 0.0 0.0 -1.0
  outer loop
    vertex 1.30517024796356 4.79903601077746 0.0571070320839175
    vertex 2.9420320607219 17.2322358569987 0.0571070320839175
    vertex 2.9420320607219 2.66583616455601 0.0571070320839175
  endloop
endfacet
facet normal 0.0 0.0 -1.0
  outer loop
    vertex 2.9420320607219 2.66583616455601 0.0571070320839175
    vertex 2.9420320607219 17.2322358569987 0.0571070320839175
    vertex 5.07523190694335 18.8690976697571 0.0571070320839175
  endloop
endfacet
facet normal 0.0 0.0 -1.0
  outer loop
    vertex 2.9420320607219 2.66583616455601 0.0571070320839175
    vertex 5.07523190694335 18.8690976697571 0.0571070320839175
    vertex 4.09049689067183 11.3245474827752 0.0571070320839224
  endloop
endfacet
facet normal 0.0 0.0 -1.0
  outer loop
    vertex 4.09049689067183 11.3245474827752 0.0571070320839224
    vertex 5.07523190694335 18.8690976697571 0.0571070320839175
    vertex 6.89049689067178 11.3245474827752 0.0571070320839224
  endloop
endfacet
facet normal 0.0 0.0 -1.0
  outer loop
    vertex 6.89049689067178 11.3245474827752 0.0571070320839224
    vertex 5.07523190694335 18.8690976697571 0.0571070320839175
    vertex 7.55939574238725 19.8980720215547 0.0571070320839175
  endloop
endfacet
facet normal 0.0 0.0 -1.0
  outer loop
    vertex 6.89049689067178 11.3245474827752 0.0571070320839224
    vertex 7.55939574238725 19.8980720215547 0.0571070320839175
    vertex 6.89049689067178 8.52454748277525 0.0571070320839224
  endloop
endfacet
facet normal -0.991444861373809 0.130526192220062 0.0
  outer loop
    vertex 0.276195896165891 12.6148721753334 16.2071070320839
    vertex -0.074768093056739 9.94903601077737 0.0571070320839175
    vertex -0.074768093056739 9.94903601077737 16.2071070320839
  endloop
endfacet
facet normal -0.991444861373809 0.130526192220062 0.0
  outer loop
    vertex -0.074768093056739 9.94903601077737 0.0571070320839175
    vertex 0.276195896165891 12.6148721753334 16.2071070320839
    vertex 0.276195896165891 12.6148721753334 0.0571070320839175
  endloop
endfacet
facet normal -0.923879532511292 0.382683432365078 0.0
  outer loop
    vertex 1.30517024796356 15.0990360107775 16.2071070320839
    vertex 0.276195896165891 12.6148721753334 0.0571070320839175
    vertex 0.276195896165891 12.6148721753334 16.2071070320839
  endloop
endfacet
facet normal -0.923879532511292 0.382683432365078 0.0
  outer loop
    vertex 0.276195896165891 12.6148721753334 0.0571070320839175
    vertex 1.30517024796356 15.0990360107775 16.2071070320839
    vertex 1.30517024796356 15.0990360107775 0.0571070320839175
  endloop
endfacet
facet normal -0.793353340291201 0.608761429008766 0.0
  outer loop
    vertex 2.9420320607219 17.2322358569987 16.2071070320839
    vertex 1.30517024796356 15.0990360107775 0.0571070320839175
    vertex 1.30517024796356 15.0990360107775 16.2071070320839
  endloop
endfacet
facet normal -0.793353340291201 0.608761429008766 0.0
  outer loop
    vertex 1.30517024796356 15.0990360107775 0.0571070320839175
    vertex 2.9420320607219 17.2322358569987 16.2071070320839
    vertex 2.9420320607219 17.2322358569987 0.0571070320839175
  endloop
endfacet
facet normal -0.608761429008734 0.793353340291225 0.0
  outer loop
    vertex 2.9420320607219 17.2322358569987 16.2071070320839
    vertex 5.07523190694335 18.8690976697571 0.0571070320839175
    vertex 2.9420320607219 17.2322358569987 0.0571070320839175
  endloop
endfacet
facet normal -0.608761429008734 0.793353340291225 0.0
  outer loop
    vertex 5.07523190694335 18.8690976697571 0.0571070320839175
    vertex 2.9420320607219 17.2322358569987 16.2071070320839
    vertex 5.07523190694335 18.8690976697571 16.2071070320839
  endloop
endfacet
facet normal -0.382683432365102 0.923879532511282 0.0
  outer loop
    vertex 5.07523190694335 18.8690976697571 16.2071070320839
    vertex 7.55939574238725 19.8980720215547 0.0571070320839175
    vertex 5.07523190694335 18.8690976697571 0.0571070320839175
  endloop
endfacet
facet normal -0.382683432365102 0.923879532511282 0.0
  outer loop
    vertex 7.55939574238725 19.8980720215547 0.0571070320839175
    vertex 5.07523190694335 18.8690976697571 16.2071070320839
    vertex 7.55939574238725 19.8980720215547 16.2071070320839
  endloop
endfacet
facet normal 0.793353340291201 -0.608761429008766 0.0
  outer loop
    vertex 19.145293565923 4.79903601077728 0.0571070320839175
    vertex 17.5084317531646 2.66583616455601 16.2071070320839
    vertex 17.5084317531646 2.66583616455601 0.0571070320839175
  endloop
endfacet
facet normal 0.793353340291201 -0.608761429008766 0.0
  outer loop
    vertex 17.5084317531646 2.66583616455601 16.2071070320839
    vertex 19.145293565923 4.79903601077728 0.0571070320839175
    vertex 19.145293565923 4.79903601077728 16.2071070320839
  endloop
endfacet
facet normal 0.608761429008734 -0.793353340291225 0.0
  outer loop
    vertex 17.5084317531646 2.66583616455601 16.2071070320839
    vertex 15.3752319069432 1.02897435179767 0.0571070320839175
    vertex 17.5084317531646 2.66583616455601 0.0571070320839175
  endloop
endfacet
facet normal 0.608761429008734 -0.793353340291225 0.0
  outer loop
    vertex 15.3752319069432 1.02897435179767 0.0571070320839175
    vertex 17.5084317531646 2.66583616455601 16.2071070320839
    vertex 15.3752319069432 1.02897435179767 16.2071070320839
  endloop
endfacet
facet normal 0.382683432365102 -0.923879532511282 0.0
  outer loop
    vertex 15.3752319069432 1.02897435179767 16.2071070320839
    vertex 12.8910680714993 0.0 0.0571070320839175
    vertex 15.3752319069432 1.02897435179767 0.0571070320839175
  endloop
endfacet
facet normal 0.382683432365102 -0.923879532511282 0.0
  outer loop
    vertex 12.8910680714993 0.0 0.0571070320839175
    vertex 15.3752319069432 1.02897435179767 16.2071070320839
    vertex 12.8910680714993 0.0 16.2071070320839
  endloop
endfacet
facet normal -0.608761429008766 -0.793353340291201 -0.0
  outer loop
    vertex 5.07523190694317 1.02897435179767 16.2071070320839
    vertex 2.9420320607219 2.66583616455601 0.0571070320839175
    vertex 5.07523190694317 1.02897435179767 0.0571070320839175
  endloop
endfacet
facet normal -0.608761429008766 -0.793353340291201 -0.0
  outer loop
    vertex 2.9420320607219 2.66583616455601 0.0571070320839175
    vertex 5.07523190694317 1.02897435179767 16.2071070320839
    vertex 2.9420320607219 2.66583616455601 16.2071070320839
  endloop
endfacet
facet normal -0.923879532511282 -0.382683432365102 -0.0
  outer loop
    vertex 0.276195896165891 7.28319984622136 16.2071070320839
    vertex 1.30517024796356 4.79903601077746 0.0571070320839175
    vertex 1.30517024796356 4.79903601077746 16.2071070320839
  endloop
endfacet
facet normal -0.923879532511282 -0.382683432365102 -0.0
  outer loop
    vertex 1.30517024796356 4.79903601077746 0.0571070320839175
    vertex 0.276195896165891 7.28319984622136 16.2071070320839
    vertex 0.276195896165891 7.28319984622136 0.0571070320839175
  endloop
endfacet
facet normal -0.793353340291225 -0.608761429008734 -0.0
  outer loop
    vertex 1.30517024796356 4.79903601077746 16.2071070320839
    vertex 2.9420320607219 2.66583616455601 0.0571070320839175
    vertex 2.9420320607219 2.66583616455601 16.2071070320839
  endloop
endfacet
facet normal -0.793353340291225 -0.608761429008734 -0.0
  outer loop
    vertex 2.9420320607219 2.66583616455601 0.0571070320839175
    vertex 1.30517024796356 4.79903601077746 16.2071070320839
    vertex 1.30517024796356 4.79903601077746 0.0571070320839175
  endloop
endfacet
facet normal 0.608761429008766 0.793353340291201 0.0
  outer loop
    vertex 15.3752319069434 18.8690976697571 16.2071070320839
    vertex 17.5084317531646 17.2322358569987 0.0571070320839175
    vertex 15.3752319069434 18.8690976697571 0.0571070320839175
  endloop
endfacet
facet normal 0.608761429008766 0.793353340291201 0.0
  outer loop
    vertex 17.5084317531646 17.2322358569987 0.0571070320839175
    vertex 15.3752319069434 18.8690976697571 16.2071070320839
    vertex 17.5084317531646 17.2322358569987 16.2071070320839
  endloop
endfacet
facet normal 0.793353340291225 0.608761429008734 0.0
  outer loop
    vertex 17.5084317531646 17.2322358569987 0.0571070320839175
    vertex 19.145293565923 15.0990360107773 16.2071070320839
    vertex 19.145293565923 15.0990360107773 0.0571070320839175
  endloop
endfacet
facet normal 0.793353340291225 0.608761429008734 0.0
  outer loop
    vertex 19.145293565923 15.0990360107773 16.2071070320839
    vertex 17.5084317531646 17.2322358569987 0.0571070320839175
    vertex 17.5084317531646 17.2322358569987 16.2071070320839
  endloop
endfacet
facet normal 0.991444861373809 0.130526192220062 0.0
  outer loop
    vertex 20.1742679177206 12.6148721753334 0.0571070320839175
    vertex 20.5252319069433 9.94903601077737 16.2071070320839
    vertex 20.5252319069433 9.94903601077737 0.0571070320839175
  endloop
endfacet
facet normal 0.991444861373809 0.130526192220062 0.0
  outer loop
    vertex 20.5252319069433 9.94903601077737 16.2071070320839
    vertex 20.1742679177206 12.6148721753334 0.0571070320839175
    vertex 20.1742679177206 12.6148721753334 16.2071070320839
  endloop
endfacet
facet normal 0.923879532511282 0.382683432365102 0.0
  outer loop
    vertex 19.145293565923 15.0990360107773 0.0571070320839175
    vertex 20.1742679177206 12.6148721753334 16.2071070320839
    vertex 20.1742679177206 12.6148721753334 0.0571070320839175
  endloop
endfacet
facet normal 0.923879532511282 0.382683432365102 0.0
  outer loop
    vertex 20.1742679177206 12.6148721753334 16.2071070320839
    vertex 19.145293565923 15.0990360107773 0.0571070320839175
    vertex 19.145293565923 15.0990360107773 16.2071070320839
  endloop
endfacet
facet normal 0.923879532511292 -0.382683432365078 0.0
  outer loop
    vertex 20.1742679177206 7.28319984622136 0.0571070320839175
    vertex 19.145293565923 4.79903601077728 16.2071070320839
    vertex 19.145293565923 4.79903601077728 0.0571070320839175
  endloop
endfacet
facet normal 0.923879532511292 -0.382683432365078 0.0
  outer loop
    vertex 19.145293565923 4.79903601077728 16.2071070320839
    vertex 20.1742679177206 7.28319984622136 0.0571070320839175
    vertex 20.1742679177206 7.28319984622136 16.2071070320839
  endloop
endfacet
facet normal -0.382683432365078 -0.923879532511292 0.0
  outer loop
    vertex 7.55939574238725 0.0 16.2071070320839
    vertex 5.07523190694317 1.02897435179767 0.0571070320839175
    vertex 7.55939574238725 0.0 0.0571070320839175
  endloop
endfacet
facet normal -0.382683432365078 -0.923879532511292 0.0
  outer loop
    vertex 5.07523190694317 1.02897435179767 0.0571070320839175
    vertex 7.55939574238725 0.0 16.2071070320839
    vertex 5.07523190694317 1.02897435179767 16.2071070320839
  endloop
endfacet
facet normal 0.991444861373809 -0.130526192220062 0.0
  outer loop
    vertex 20.5252319069433 9.94903601077737 0.0571070320839175
    vertex 20.1742679177206 7.28319984622136 16.2071070320839
    vertex 20.1742679177206 7.28319984622136 0.0571070320839175
  endloop
endfacet
facet normal 0.991444861373809 -0.130526192220062 0.0
  outer loop
    vertex 20.1742679177206 7.28319984622136 16.2071070320839
    vertex 20.5252319069433 9.94903601077737 0.0571070320839175
    vertex 20.5252319069433 9.94903601077737 16.2071070320839
  endloop
endfacet
facet normal 0.382683432365078 0.923879532511292 0.0
  outer loop
    vertex 12.8910680714993 19.8980720215547 16.2071070320839
    vertex 15.3752319069434 18.8690976697571 0.0571070320839175
    vertex 12.8910680714993 19.8980720215547 0.0571070320839175
  endloop
endfacet
facet normal 0.382683432365078 0.923879532511292 0.0
  outer loop
    vertex 15.3752319069434 18.8690976697571 0.0571070320839175
    vertex 12.8910680714993 19.8980720215547 16.2071070320839
    vertex 15.3752319069434 18.8690976697571 16.2071070320839
  endloop
endfacet
facet normal -0.991444861373809 -0.130526192220062 -0.0
  outer loop
    vertex -0.074768093056739 9.94903601077737 16.2071070320839
    vertex 0.276195896165891 7.28319984622136 0.0571070320839175
    vertex 0.276195896165891 7.28319984622136 16.2071070320839
  endloop
endfacet
facet normal -0.991444861373809 -0.130526192220062 -0.0
  outer loop
    vertex 0.276195896165891 7.28319984622136 0.0571070320839175
    vertex -0.074768093056739 9.94903601077737 16.2071070320839
    vertex -0.074768093056739 9.94903601077737 0.0571070320839175
  endloop
endfacet
facet normal 0.0 -1.0 0.0
  outer loop
    vertex 12.8910680714993 0.0 0.0571070320839175
    vertex 11.7840776337551 0.0 6.73210703208394
    vertex 7.55939574238725 0.0 0.0571070320839175
  endloop
endfacet
facet normal 0.0 -1.0 0.0
  outer loop
    vertex 11.7840776337551 0.0 6.73210703208394
    vertex 12.8910680714993 0.0 0.0571070320839175
    vertex 11.9638983942636 0.0 7.16623275089939
  endloop
endfacet
facet normal 0.0 -1.0 0.0
  outer loop
    vertex 11.9638983942636 0.0 7.16623275089939
    vertex 12.8910680714993 0.0 0.0571070320839175
    vertex 12.0252319069432 0.0 7.63210703208392
  endloop
endfacet
facet normal 0.0 -1.0 0.0
  outer loop
    vertex 12.0252319069432 0.0 7.63210703208392
    vertex 12.8910680714993 0.0 0.0571070320839175
    vertex 12.8910680714993 0.0 16.2071070320839
  endloop
endfacet
facet normal 0.0 -1.0 0.0
  outer loop
    vertex 7.55939574238725 0.0 0.0571070320839175
    vertex 11.7840776337551 0.0 6.73210703208394
    vertex 11.498024113079 0.0 6.35931482594817
  endloop
endfacet
facet normal 0.0 -1.0 0.0
  outer loop
    vertex 7.55939574238725 0.0 0.0571070320839175
    vertex 11.498024113079 0.0 6.35931482594817
    vertex 11.1252319069432 0.0 6.07326130527197
  endloop
endfacet
facet normal 0.0 -1.0 0.0
  outer loop
    vertex 7.55939574238725 0.0 0.0571070320839175
    vertex 11.1252319069432 0.0 6.07326130527197
    vertex 10.6911061881278 0.0 5.89344054476364
  endloop
endfacet
facet normal 0.0 -1.0 0.0
  outer loop
    vertex 7.55939574238725 0.0 0.0571070320839175
    vertex 10.6911061881278 0.0 5.89344054476364
    vertex 10.2252319069433 0.0 5.83210703208397
  endloop
endfacet
facet normal 0.0 -1.0 0.0
  outer loop
    vertex 12.0252319069432 0.0 7.63210703208392
    vertex 12.8910680714993 0.0 16.2071070320839
    vertex 11.9638983942636 0.0 8.09798131326844
  endloop
endfacet
facet normal 0.0 -1.0 0.0
  outer loop
    vertex 11.9638983942636 0.0 8.09798131326844
    vertex 12.8910680714993 0.0 16.2071070320839
    vertex 11.7840776337551 0.0 8.53210703208389
  endloop
endfacet
facet normal 0.0 -1.0 0.0
  outer loop
    vertex 11.7840776337551 0.0 8.53210703208389
    vertex 12.8910680714993 0.0 16.2071070320839
    vertex 11.498024113079 0.0 8.90489923821967
  endloop
endfacet
facet normal 0.0 -1.0 0.0
  outer loop
    vertex 11.498024113079 0.0 8.90489923821967
    vertex 12.8910680714993 0.0 16.2071070320839
    vertex 11.1252319069432 0.0 9.19095275889587
  endloop
endfacet
facet normal 0.0 -1.0 0.0
  outer loop
    vertex 11.1252319069432 0.0 9.19095275889587
    vertex 12.8910680714993 0.0 16.2071070320839
    vertex 10.6911061881278 0.0 9.37077351940419
  endloop
endfacet
facet normal 0.0 -1.0 0.0
  outer loop
    vertex 10.6911061881278 0.0 9.37077351940419
    vertex 12.8910680714993 0.0 16.2071070320839
    vertex 10.2252319069433 0.0 9.43210703208387
  endloop
endfacet
facet normal 0.0 -1.0 0.0
  outer loop
    vertex 7.55939574238725 0.0 0.0571070320839175
    vertex 8.42523190694331 0.0 7.63210703208392
    vertex 7.55939574238725 0.0 16.2071070320839
  endloop
endfacet
facet normal 0.0 -1.0 0.0
  outer loop
    vertex 8.42523190694331 0.0 7.63210703208392
    vertex 7.55939574238725 0.0 0.0571070320839175
    vertex 8.48656541962294 0.0 7.16623275089939
  endloop
endfacet
facet normal 0.0 -1.0 0.0
  outer loop
    vertex 8.48656541962294 0.0 7.16623275089939
    vertex 7.55939574238725 0.0 0.0571070320839175
    vertex 8.6663861801314 0.0 6.73210703208394
  endloop
endfacet
facet normal 0.0 -1.0 0.0
  outer loop
    vertex 8.6663861801314 0.0 6.73210703208394
    vertex 7.55939574238725 0.0 0.0571070320839175
    vertex 8.9524397008075 0.0 6.35931482594817
  endloop
endfacet
facet normal 0.0 -1.0 0.0
  outer loop
    vertex 8.9524397008075 0.0 6.35931482594817
    vertex 7.55939574238725 0.0 0.0571070320839175
    vertex 9.32523190694329 0.0 6.07326130527197
  endloop
endfacet
facet normal 0.0 -1.0 0.0
  outer loop
    vertex 9.32523190694329 0.0 6.07326130527197
    vertex 7.55939574238725 0.0 0.0571070320839175
    vertex 9.7593576257587 0.0 5.89344054476364
  endloop
endfacet
facet normal 0.0 -1.0 0.0
  outer loop
    vertex 9.7593576257587 0.0 5.89344054476364
    vertex 7.55939574238725 0.0 0.0571070320839175
    vertex 10.2252319069433 0.0 5.83210703208397
  endloop
endfacet
facet normal 0.0 -1.0 0.0
  outer loop
    vertex 7.55939574238725 0.0 16.2071070320839
    vertex 8.42523190694331 0.0 7.63210703208392
    vertex 8.48656541962294 0.0 8.09798131326844
  endloop
endfacet
facet normal 0.0 -1.0 0.0
  outer loop
    vertex 7.55939574238725 0.0 16.2071070320839
    vertex 8.48656541962294 0.0 8.09798131326844
    vertex 8.6663861801314 0.0 8.53210703208389
  endloop
endfacet
facet normal 0.0 -1.0 0.0
  outer loop
    vertex 7.55939574238725 0.0 16.2071070320839
    vertex 8.6663861801314 0.0 8.53210703208389
    vertex 8.9524397008075 0.0 8.90489923821967
  endloop
endfacet
facet normal 0.0 -1.0 0.0
  outer loop
    vertex 7.55939574238725 0.0 16.2071070320839
    vertex 8.9524397008075 0.0 8.90489923821967
    vertex 9.32523190694329 0.0 9.19095275889586
  endloop
endfacet
facet normal 0.0 -1.0 0.0
  outer loop
    vertex 7.55939574238725 0.0 16.2071070320839
    vertex 9.32523190694329 0.0 9.19095275889586
    vertex 9.7593576257587 0.0 9.37077351940419
  endloop
endfacet
facet normal 0.0 -1.0 0.0
  outer loop
    vertex 7.55939574238725 0.0 16.2071070320839
    vertex 9.7593576257587 0.0 9.37077351940419
    vertex 10.2252319069433 0.0 9.43210703208387
  endloop
endfacet
facet normal 0.0 -1.0 0.0
  outer loop
    vertex 7.55939574238725 0.0 16.2071070320839
    vertex 10.2252319069433 0.0 9.43210703208387
    vertex 12.8910680714993 0.0 16.2071070320839
  endloop
endfacet
facet normal 0.382683432365118 0.0 -0.923879532511275
  outer loop
    vertex 9.7593576257587 6.38903601077686 9.37077351940419
    vertex 9.32523190694329 0.0 9.19095275889586
    vertex 9.32523190694329 6.38903601077686 9.19095275889586
  endloop
endfacet
facet normal 0.382683432365118 0.0 -0.923879532511275
  outer loop
    vertex 9.32523190694329 0.0 9.19095275889586
    vertex 9.7593576257587 6.38903601077686 9.37077351940419
    vertex 9.7593576257587 0.0 9.37077351940419
  endloop
endfacet
facet normal 0.608761429008711 0.0 -0.793353340291242
  outer loop
    vertex 9.32523190694329 6.38903601077686 9.19095275889586
    vertex 8.9524397008075 0.0 8.90489923821967
    vertex 8.9524397008075 6.38903601077686 8.90489923821967
  endloop
endfacet
facet normal 0.608761429008711 0.0 -0.793353340291242
  outer loop
    vertex 8.9524397008075 0.0 8.90489923821967
    vertex 9.32523190694329 6.38903601077686 9.19095275889586
    vertex 9.32523190694329 0.0 9.19095275889586
  endloop
endfacet
facet normal 0.793353340291332 0.0 -0.608761429008595
  outer loop
    vertex 8.6663861801314 6.38903601077686 8.53210703208389
    vertex 8.9524397008075 0.0 8.90489923821967
    vertex 8.6663861801314 0.0 8.53210703208389
  endloop
endfacet
facet normal 0.793353340291332 0.0 -0.608761429008595
  outer loop
    vertex 8.9524397008075 0.0 8.90489923821967
    vertex 8.6663861801314 6.38903601077686 8.53210703208389
    vertex 8.9524397008075 6.38903601077686 8.90489923821967
  endloop
endfacet
facet normal -0.382683432365118 0.0 0.923879532511275
  outer loop
    vertex 11.1252319069432 0.0 6.07326130527197
    vertex 10.6911061881278 6.38903601077686 5.89344054476364
    vertex 10.6911061881278 0.0 5.89344054476364
  endloop
endfacet
facet normal -0.382683432365118 0.0 0.923879532511275
  outer loop
    vertex 10.6911061881278 6.38903601077686 5.89344054476364
    vertex 11.1252319069432 0.0 6.07326130527197
    vertex 11.1252319069432 6.38903601077686 6.07326130527197
  endloop
endfacet
facet normal -0.60876142900871 0.0 0.793353340291243
  outer loop
    vertex 11.498024113079 0.0 6.35931482594817
    vertex 11.1252319069432 6.38903601077686 6.07326130527197
    vertex 11.1252319069432 0.0 6.07326130527197
  endloop
endfacet
facet normal -0.60876142900871 0.0 0.793353340291243
  outer loop
    vertex 11.1252319069432 6.38903601077686 6.07326130527197
    vertex 11.498024113079 0.0 6.35931482594817
    vertex 11.498024113079 6.38903601077686 6.35931482594817
  endloop
endfacet
facet normal -0.793353340291333 0.0 0.608761429008594
  outer loop
    vertex 11.7840776337551 6.38903601077686 6.73210703208394
    vertex 11.498024113079 0.0 6.35931482594817
    vertex 11.7840776337551 0.0 6.73210703208394
  endloop
endfacet
facet normal -0.793353340291333 0.0 0.608761429008594
  outer loop
    vertex 11.498024113079 0.0 6.35931482594817
    vertex 11.7840776337551 6.38903601077686 6.73210703208394
    vertex 11.498024113079 6.38903601077686 6.35931482594817
  endloop
endfacet
facet normal 0.923879532511188 0.0 0.382683432365329
  outer loop
    vertex 8.6663861801314 6.38903601077686 6.73210703208394
    vertex 8.48656541962294 0.0 7.16623275089939
    vertex 8.6663861801314 0.0 6.73210703208394
  endloop
endfacet
facet normal 0.923879532511188 0.0 0.382683432365329
  outer loop
    vertex 8.48656541962294 0.0 7.16623275089939
    vertex 8.6663861801314 6.38903601077686 6.73210703208394
    vertex 8.48656541962294 6.38903601077686 7.16623275089939
  endloop
endfacet
facet normal 0.608761429008709 0.0 0.793353340291244
  outer loop
    vertex 9.32523190694329 0.0 6.07326130527197
    vertex 8.9524397008075 6.38903601077686 6.35931482594817
    vertex 8.9524397008075 0.0 6.35931482594817
  endloop
endfacet
facet normal 0.608761429008709 0.0 0.793353340291244
  outer loop
    vertex 8.9524397008075 6.38903601077686 6.35931482594817
    vertex 9.32523190694329 0.0 6.07326130527197
    vertex 9.32523190694329 6.38903601077686 6.07326130527197
  endloop
endfacet
facet normal 0.793353340291333 0.0 0.608761429008593
  outer loop
    vertex 8.9524397008075 6.38903601077686 6.35931482594817
    vertex 8.6663861801314 0.0 6.73210703208394
    vertex 8.9524397008075 0.0 6.35931482594817
  endloop
endfacet
facet normal 0.793353340291333 0.0 0.608761429008593
  outer loop
    vertex 8.6663861801314 0.0 6.73210703208394
    vertex 8.9524397008075 6.38903601077686 6.35931482594817
    vertex 8.6663861801314 6.38903601077686 6.73210703208394
  endloop
endfacet
facet normal -0.608761429008711 -0.0 -0.793353340291242
  outer loop
    vertex 11.498024113079 6.38903601077686 8.90489923821967
    vertex 11.1252319069432 0.0 9.19095275889587
    vertex 11.1252319069432 6.38903601077686 9.19095275889587
  endloop
endfacet
facet normal -0.608761429008711 -0.0 -0.793353340291242
  outer loop
    vertex 11.1252319069432 0.0 9.19095275889587
    vertex 11.498024113079 6.38903601077686 8.90489923821967
    vertex 11.498024113079 0.0 8.90489923821967
  endloop
endfacet
facet normal -0.130526192220041 -0.0 -0.991444861373812
  outer loop
    vertex 10.6911061881278 6.38903601077686 9.37077351940419
    vertex 10.2252319069433 0.0 9.43210703208387
    vertex 10.2252319069433 6.38903601077686 9.43210703208387
  endloop
endfacet
facet normal -0.130526192220041 -0.0 -0.991444861373812
  outer loop
    vertex 10.2252319069433 0.0 9.43210703208387
    vertex 10.6911061881278 6.38903601077686 9.37077351940419
    vertex 10.6911061881278 0.0 9.37077351940419
  endloop
endfacet
facet normal -0.382683432365115 -0.0 -0.923879532511276
  outer loop
    vertex 11.1252319069432 6.38903601077686 9.19095275889587
    vertex 10.6911061881278 0.0 9.37077351940419
    vertex 10.6911061881278 6.38903601077686 9.37077351940419
  endloop
endfacet
facet normal -0.382683432365115 -0.0 -0.923879532511276
  outer loop
    vertex 10.6911061881278 0.0 9.37077351940419
    vertex 11.1252319069432 6.38903601077686 9.19095275889587
    vertex 11.1252319069432 0.0 9.19095275889587
  endloop
endfacet
facet normal 0.130526192220041 0.0 -0.991444861373812
  outer loop
    vertex 10.2252319069433 6.38903601077686 9.43210703208387
    vertex 9.7593576257587 0.0 9.37077351940419
    vertex 9.7593576257587 6.38903601077686 9.37077351940419
  endloop
endfacet
facet normal 0.130526192220041 0.0 -0.991444861373812
  outer loop
    vertex 9.7593576257587 0.0 9.37077351940419
    vertex 10.2252319069433 6.38903601077686 9.43210703208387
    vertex 10.2252319069433 0.0 9.43210703208387
  endloop
endfacet
facet normal 0.382683432365118 0.0 0.923879532511275
  outer loop
    vertex 9.7593576257587 0.0 5.89344054476364
    vertex 9.32523190694329 6.38903601077686 6.07326130527197
    vertex 9.32523190694329 0.0 6.07326130527197
  endloop
endfacet
facet normal 0.382683432365118 0.0 0.923879532511275
  outer loop
    vertex 9.32523190694329 6.38903601077686 6.07326130527197
    vertex 9.7593576257587 0.0 5.89344054476364
    vertex 9.7593576257587 6.38903601077686 5.89344054476364
  endloop
endfacet
facet normal 0.130526192220041 0.0 0.991444861373812
  outer loop
    vertex 10.2252319069433 0.0 5.83210703208397
    vertex 9.7593576257587 6.38903601077686 5.89344054476364
    vertex 9.7593576257587 0.0 5.89344054476364
  endloop
endfacet
facet normal 0.130526192220041 0.0 0.991444861373812
  outer loop
    vertex 9.7593576257587 6.38903601077686 5.89344054476364
    vertex 10.2252319069433 0.0 5.83210703208397
    vertex 10.2252319069433 6.38903601077686 5.83210703208397
  endloop
endfacet
facet normal -0.130526192220041 0.0 0.991444861373812
  outer loop
    vertex 10.6911061881278 0.0 5.89344054476364
    vertex 10.2252319069433 6.38903601077686 5.83210703208397
    vertex 10.2252319069433 0.0 5.83210703208397
  endloop
endfacet
facet normal -0.130526192220041 0.0 0.991444861373812
  outer loop
    vertex 10.2252319069433 6.38903601077686 5.83210703208397
    vertex 10.6911061881278 0.0 5.89344054476364
    vertex 10.6911061881278 6.38903601077686 5.89344054476364
  endloop
endfacet
facet normal 0.923879532511188 0.0 -0.382683432365328
  outer loop
    vertex 8.48656541962294 6.38903601077686 8.09798131326844
    vertex 8.6663861801314 0.0 8.53210703208389
    vertex 8.48656541962294 0.0 8.09798131326844
  endloop
endfacet
facet normal 0.923879532511188 0.0 -0.382683432365328
  outer loop
    vertex 8.6663861801314 0.0 8.53210703208389
    vertex 8.48656541962294 6.38903601077686 8.09798131326844
    vertex 8.6663861801314 6.38903601077686 8.53210703208389
  endloop
endfacet
facet normal 0.991444861373823 0.0 -0.130526192219954
  outer loop
    vertex 8.42523190694331 6.38903601077686 7.63210703208392
    vertex 8.48656541962294 0.0 8.09798131326844
    vertex 8.42523190694331 0.0 7.63210703208392
  endloop
endfacet
facet normal 0.991444861373823 0.0 -0.130526192219954
  outer loop
    vertex 8.48656541962294 0.0 8.09798131326844
    vertex 8.42523190694331 6.38903601077686 7.63210703208392
    vertex 8.48656541962294 6.38903601077686 8.09798131326844
  endloop
endfacet
facet normal 0.991444861373823 0.0 0.130526192219953
  outer loop
    vertex 8.48656541962294 6.38903601077686 7.16623275089939
    vertex 8.42523190694331 0.0 7.63210703208392
    vertex 8.48656541962294 0.0 7.16623275089939
  endloop
endfacet
facet normal 0.991444861373823 0.0 0.130526192219953
  outer loop
    vertex 8.42523190694331 0.0 7.63210703208392
    vertex 8.48656541962294 6.38903601077686 7.16623275089939
    vertex 8.42523190694331 6.38903601077686 7.63210703208392
  endloop
endfacet
facet normal -0.793353340291332 -0.0 -0.608761429008595
  outer loop
    vertex 11.498024113079 6.38903601077686 8.90489923821967
    vertex 11.7840776337551 0.0 8.53210703208389
    vertex 11.498024113079 0.0 8.90489923821967
  endloop
endfacet
facet normal -0.793353340291332 -0.0 -0.608761429008595
  outer loop
    vertex 11.7840776337551 0.0 8.53210703208389
    vertex 11.498024113079 6.38903601077686 8.90489923821967
    vertex 11.7840776337551 6.38903601077686 8.53210703208389
  endloop
endfacet
facet normal -0.923879532511188 -0.0 -0.382683432365328
  outer loop
    vertex 11.7840776337551 6.38903601077686 8.53210703208389
    vertex 11.9638983942636 0.0 8.09798131326844
    vertex 11.7840776337551 0.0 8.53210703208389
  endloop
endfacet
facet normal -0.923879532511188 -0.0 -0.382683432365328
  outer loop
    vertex 11.9638983942636 0.0 8.09798131326844
    vertex 11.7840776337551 6.38903601077686 8.53210703208389
    vertex 11.9638983942636 6.38903601077686 8.09798131326844
  endloop
endfacet
facet normal -0.923879532511188 0.0 0.382683432365328
  outer loop
    vertex 11.9638983942636 6.38903601077686 7.16623275089939
    vertex 11.7840776337551 0.0 6.73210703208394
    vertex 11.9638983942636 0.0 7.16623275089939
  endloop
endfacet
facet normal -0.923879532511188 0.0 0.382683432365328
  outer loop
    vertex 11.7840776337551 0.0 6.73210703208394
    vertex 11.9638983942636 6.38903601077686 7.16623275089939
    vertex 11.7840776337551 6.38903601077686 6.73210703208394
  endloop
endfacet
facet normal -0.991444861373823 0.0 0.130526192219954
  outer loop
    vertex 12.0252319069432 6.38903601077686 7.63210703208392
    vertex 11.9638983942636 0.0 7.16623275089939
    vertex 12.0252319069432 0.0 7.63210703208392
  endloop
endfacet
facet normal -0.991444861373823 0.0 0.130526192219954
  outer loop
    vertex 11.9638983942636 0.0 7.16623275089939
    vertex 12.0252319069432 6.38903601077686 7.63210703208392
    vertex 11.9638983942636 6.38903601077686 7.16623275089939
  endloop
endfacet
facet normal -0.991444861373823 -0.0 -0.130526192219953
  outer loop
    vertex 11.9638983942636 6.38903601077686 8.09798131326844
    vertex 12.0252319069432 0.0 7.63210703208392
    vertex 11.9638983942636 0.0 8.09798131326844
  endloop
endfacet
facet normal -0.991444861373823 -0.0 -0.130526192219953
  outer loop
    vertex 12.0252319069432 0.0 7.63210703208392
    vertex 11.9638983942636 6.38903601077686 8.09798131326844
    vertex 12.0252319069432 6.38903601077686 7.63210703208392
  endloop
endfacet
facet normal 0.0 1.0 0.0
  outer loop
    vertex 7.55939574238725 19.8980720215547 0.0571070320839175
    vertex 8.6663861801314 19.8980720215547 6.73210703208394
    vertex 12.8910680714993 19.8980720215547 0.0571070320839175
  endloop
endfacet
facet normal 0.0 1.0 0.0
  outer loop
    vertex 8.6663861801314 19.8980720215547 6.73210703208394
    vertex 7.55939574238725 19.8980720215547 0.0571070320839175
    vertex 8.48656541962294 19.8980720215547 7.16623275089939
  endloop
endfacet
facet normal 0.0 1.0 0.0
  outer loop
    vertex 8.48656541962294 19.8980720215547 7.16623275089939
    vertex 7.55939574238725 19.8980720215547 0.0571070320839175
    vertex 8.42523190694331 19.8980720215547 7.63210703208392
  endloop
endfacet
facet normal 0.0 1.0 0.0
  outer loop
    vertex 8.42523190694331 19.8980720215547 7.63210703208392
    vertex 7.55939574238725 19.8980720215547 0.0571070320839175
    vertex 7.55939574238725 19.8980720215547 16.2071070320839
  endloop
endfacet
facet normal 0.0 1.0 0.0
  outer loop
    vertex 12.8910680714993 19.8980720215547 0.0571070320839175
    vertex 8.6663861801314 19.8980720215547 6.73210703208394
    vertex 8.9524397008075 19.8980720215547 6.35931482594817
  endloop
endfacet
facet normal 0.0 1.0 0.0
  outer loop
    vertex 12.8910680714993 19.8980720215547 0.0571070320839175
    vertex 8.9524397008075 19.8980720215547 6.35931482594817
    vertex 9.32523190694329 19.8980720215547 6.07326130527197
  endloop
endfacet
facet normal 0.0 1.0 0.0
  outer loop
    vertex 12.8910680714993 19.8980720215547 0.0571070320839175
    vertex 9.32523190694329 19.8980720215547 6.07326130527197
    vertex 9.7593576257587 19.8980720215547 5.89344054476364
  endloop
endfacet
facet normal 0.0 1.0 0.0
  outer loop
    vertex 12.8910680714993 19.8980720215547 0.0571070320839175
    vertex 9.7593576257587 19.8980720215547 5.89344054476364
    vertex 10.2252319069433 19.8980720215547 5.83210703208397
  endloop
endfacet
facet normal 0.0 1.0 0.0
  outer loop
    vertex 8.42523190694331 19.8980720215547 7.63210703208392
    vertex 7.55939574238725 19.8980720215547 16.2071070320839
    vertex 8.48656541962294 19.8980720215547 8.09798131326844
  endloop
endfacet
facet normal 0.0 1.0 0.0
  outer loop
    vertex 8.48656541962294 19.8980720215547 8.09798131326844
    vertex 7.55939574238725 19.8980720215547 16.2071070320839
    vertex 8.6663861801314 19.8980720215547 8.53210703208389
  endloop
endfacet
facet normal 0.0 1.0 0.0
  outer loop
    vertex 8.6663861801314 19.8980720215547 8.53210703208389
    vertex 7.55939574238725 19.8980720215547 16.2071070320839
    vertex 8.9524397008075 19.8980720215547 8.90489923821967
  endloop
endfacet
facet normal 0.0 1.0 0.0
  outer loop
    vertex 8.9524397008075 19.8980720215547 8.90489923821967
    vertex 7.55939574238725 19.8980720215547 16.2071070320839
    vertex 9.32523190694329 19.8980720215547 9.19095275889586
  endloop
endfacet
facet normal 0.0 1.0 0.0
  outer loop
    vertex 9.32523190694329 19.8980720215547 9.19095275889586
    vertex 7.55939574238725 19.8980720215547 16.2071070320839
    vertex 9.7593576257587 19.8980720215547 9.37077351940419
  endloop
endfacet
facet normal 0.0 1.0 0.0
  outer loop
    vertex 9.7593576257587 19.8980720215547 9.37077351940419
    vertex 7.55939574238725 19.8980720215547 16.2071070320839
    vertex 10.2252319069433 19.8980720215547 9.43210703208387
  endloop
endfacet
facet normal 0.0 1.0 0.0
  outer loop
    vertex 12.8910680714993 19.8980720215547 0.0571070320839175
    vertex 12.0252319069432 19.8980720215547 7.63210703208392
    vertex 12.8910680714993 19.8980720215547 16.2071070320839
  endloop
endfacet
facet normal 0.0 1.0 0.0
  outer loop
    vertex 12.0252319069432 19.8980720215547 7.63210703208392
    vertex 12.8910680714993 19.8980720215547 0.0571070320839175
    vertex 11.9638983942636 19.8980720215547 7.16623275089939
  endloop
endfacet
facet normal 0.0 1.0 0.0
  outer loop
    vertex 11.9638983942636 19.8980720215547 7.16623275089939
    vertex 12.8910680714993 19.8980720215547 0.0571070320839175
    vertex 11.7840776337551 19.8980720215547 6.73210703208394
  endloop
endfacet
facet normal 0.0 1.0 0.0
  outer loop
    vertex 11.7840776337551 19.8980720215547 6.73210703208394
    vertex 12.8910680714993 19.8980720215547 0.0571070320839175
    vertex 11.498024113079 19.8980720215547 6.35931482594817
  endloop
endfacet
facet normal 0.0 1.0 0.0
  outer loop
    vertex 11.498024113079 19.8980720215547 6.35931482594817
    vertex 12.8910680714993 19.8980720215547 0.0571070320839175
    vertex 11.1252319069432 19.8980720215547 6.07326130527197
  endloop
endfacet
facet normal 0.0 1.0 0.0
  outer loop
    vertex 11.1252319069432 19.8980720215547 6.07326130527197
    vertex 12.8910680714993 19.8980720215547 0.0571070320839175
    vertex 10.6911061881278 19.8980720215547 5.89344054476364
  endloop
endfacet
facet normal 0.0 1.0 0.0
  outer loop
    vertex 10.6911061881278 19.8980720215547 5.89344054476364
    vertex 12.8910680714993 19.8980720215547 0.0571070320839175
    vertex 10.2252319069433 19.8980720215547 5.83210703208397
  endloop
endfacet
facet normal 0.0 1.0 0.0
  outer loop
    vertex 12.8910680714993 19.8980720215547 16.2071070320839
    vertex 12.0252319069432 19.8980720215547 7.63210703208392
    vertex 11.9638983942636 19.8980720215547 8.09798131326844
  endloop
endfacet
facet normal 0.0 1.0 0.0
  outer loop
    vertex 12.8910680714993 19.8980720215547 16.2071070320839
    vertex 11.9638983942636 19.8980720215547 8.09798131326844
    vertex 11.7840776337551 19.8980720215547 8.53210703208389
  endloop
endfacet
facet normal 0.0 1.0 0.0
  outer loop
    vertex 12.8910680714993 19.8980720215547 16.2071070320839
    vertex 11.7840776337551 19.8980720215547 8.53210703208389
    vertex 11.498024113079 19.8980720215547 8.90489923821967
  endloop
endfacet
facet normal 0.0 1.0 0.0
  outer loop
    vertex 12.8910680714993 19.8980720215547 16.2071070320839
    vertex 11.498024113079 19.8980720215547 8.90489923821967
    vertex 11.1252319069432 19.8980720215547 9.19095275889586
  endloop
endfacet
facet normal 0.0 1.0 0.0
  outer loop
    vertex 12.8910680714993 19.8980720215547 16.2071070320839
    vertex 11.1252319069432 19.8980720215547 9.19095275889586
    vertex 10.6911061881278 19.8980720215547 9.37077351940419
  endloop
endfacet
facet normal 0.0 1.0 0.0
  outer loop
    vertex 12.8910680714993 19.8980720215547 16.2071070320839
    vertex 10.6911061881278 19.8980720215547 9.37077351940419
    vertex 10.2252319069433 19.8980720215547 9.43210703208387
  endloop
endfacet
facet normal 0.0 1.0 0.0
  outer loop
    vertex 12.8910680714993 19.8980720215547 16.2071070320839
    vertex 10.2252319069433 19.8980720215547 9.43210703208387
    vertex 7.55939574238725 19.8980720215547 16.2071070320839
  endloop
endfacet
facet normal 0.608761429008709 0.0 -0.793353340291244
  outer loop
    vertex 9.32523190694329 19.8980720215547 9.19095275889586
    vertex 8.9524397008075 13.5090360107775 8.90489923821967
    vertex 8.9524397008075 19.8980720215547 8.90489923821967
  endloop
endfacet
facet normal 0.608761429008709 0.0 -0.793353340291244
  outer loop
    vertex 8.9524397008075 13.5090360107775 8.90489923821967
    vertex 9.32523190694329 19.8980720215547 9.19095275889586
    vertex 9.32523190694329 13.5090360107775 9.19095275889586
  endloop
endfacet
facet normal 0.382683432365118 0.0 -0.923879532511275
  outer loop
    vertex 9.7593576257587 19.8980720215547 9.37077351940419
    vertex 9.32523190694329 13.5090360107775 9.19095275889586
    vertex 9.32523190694329 19.8980720215547 9.19095275889586
  endloop
endfacet
facet normal 0.382683432365118 0.0 -0.923879532511275
  outer loop
    vertex 9.32523190694329 13.5090360107775 9.19095275889586
    vertex 9.7593576257587 19.8980720215547 9.37077351940419
    vertex 9.7593576257587 13.5090360107775 9.37077351940419
  endloop
endfacet
facet normal 0.130526192220041 0.0 -0.991444861373812
  outer loop
    vertex 10.2252319069433 19.8980720215547 9.43210703208387
    vertex 9.7593576257587 13.5090360107775 9.37077351940419
    vertex 9.7593576257587 19.8980720215547 9.37077351940419
  endloop
endfacet
facet normal 0.130526192220041 0.0 -0.991444861373812
  outer loop
    vertex 9.7593576257587 13.5090360107775 9.37077351940419
    vertex 10.2252319069433 19.8980720215547 9.43210703208387
    vertex 10.2252319069433 13.5090360107775 9.43210703208387
  endloop
endfacet
facet normal -0.130526192220041 -0.0 -0.991444861373812
  outer loop
    vertex 10.6911061881278 19.8980720215547 9.37077351940419
    vertex 10.2252319069433 13.5090360107775 9.43210703208387
    vertex 10.2252319069433 19.8980720215547 9.43210703208387
  endloop
endfacet
facet normal -0.130526192220041 -0.0 -0.991444861373812
  outer loop
    vertex 10.2252319069433 13.5090360107775 9.43210703208387
    vertex 10.6911061881278 19.8980720215547 9.37077351940419
    vertex 10.6911061881278 13.5090360107775 9.37077351940419
  endloop
endfacet
facet normal -0.382683432365118 -0.0 -0.923879532511275
  outer loop
    vertex 11.1252319069432 19.8980720215547 9.19095275889586
    vertex 10.6911061881278 13.5090360107775 9.37077351940419
    vertex 10.6911061881278 19.8980720215547 9.37077351940419
  endloop
endfacet
facet normal -0.382683432365118 -0.0 -0.923879532511275
  outer loop
    vertex 10.6911061881278 13.5090360107775 9.37077351940419
    vertex 11.1252319069432 19.8980720215547 9.19095275889586
    vertex 11.1252319069432 13.5090360107775 9.19095275889586
  endloop
endfacet
facet normal -0.608761429008709 -0.0 -0.793353340291244
  outer loop
    vertex 11.498024113079 19.8980720215547 8.90489923821967
    vertex 11.1252319069432 13.5090360107775 9.19095275889586
    vertex 11.1252319069432 19.8980720215547 9.19095275889586
  endloop
endfacet
facet normal -0.608761429008709 -0.0 -0.793353340291244
  outer loop
    vertex 11.1252319069432 13.5090360107775 9.19095275889586
    vertex 11.498024113079 19.8980720215547 8.90489923821967
    vertex 11.498024113079 13.5090360107775 8.90489923821967
  endloop
endfacet
facet normal -0.793353340291333 -0.0 -0.608761429008593
  outer loop
    vertex 11.498024113079 19.8980720215547 8.90489923821967
    vertex 11.7840776337551 13.5090360107775 8.53210703208389
    vertex 11.498024113079 13.5090360107775 8.90489923821967
  endloop
endfacet
facet normal -0.793353340291333 -0.0 -0.608761429008593
  outer loop
    vertex 11.7840776337551 13.5090360107775 8.53210703208389
    vertex 11.498024113079 19.8980720215547 8.90489923821967
    vertex 11.7840776337551 19.8980720215547 8.53210703208389
  endloop
endfacet
facet normal -0.923879532511188 -0.0 -0.382683432365328
  outer loop
    vertex 11.7840776337551 19.8980720215547 8.53210703208389
    vertex 11.9638983942636 13.5090360107775 8.09798131326844
    vertex 11.7840776337551 13.5090360107775 8.53210703208389
  endloop
endfacet
facet normal -0.923879532511188 -0.0 -0.382683432365328
  outer loop
    vertex 11.9638983942636 13.5090360107775 8.09798131326844
    vertex 11.7840776337551 19.8980720215547 8.53210703208389
    vertex 11.9638983942636 19.8980720215547 8.09798131326844
  endloop
endfacet
facet normal -0.991444861373823 -0.0 -0.130526192219954
  outer loop
    vertex 11.9638983942636 19.8980720215547 8.09798131326844
    vertex 12.0252319069432 13.5090360107775 7.63210703208392
    vertex 11.9638983942636 13.5090360107775 8.09798131326844
  endloop
endfacet
facet normal -0.991444861373823 -0.0 -0.130526192219954
  outer loop
    vertex 12.0252319069432 13.5090360107775 7.63210703208392
    vertex 11.9638983942636 19.8980720215547 8.09798131326844
    vertex 12.0252319069432 19.8980720215547 7.63210703208392
  endloop
endfacet
facet normal -0.991444861373823 0.0 0.130526192219953
  outer loop
    vertex 12.0252319069432 19.8980720215547 7.63210703208392
    vertex 11.9638983942636 13.5090360107775 7.16623275089939
    vertex 12.0252319069432 13.5090360107775 7.63210703208392
  endloop
endfacet
facet normal -0.991444861373823 0.0 0.130526192219953
  outer loop
    vertex 11.9638983942636 13.5090360107775 7.16623275089939
    vertex 12.0252319069432 19.8980720215547 7.63210703208392
    vertex 11.9638983942636 19.8980720215547 7.16623275089939
  endloop
endfacet
facet normal -0.923879532511188 0.0 0.382683432365328
  outer loop
    vertex 11.9638983942636 19.8980720215547 7.16623275089939
    vertex 11.7840776337551 13.5090360107775 6.73210703208394
    vertex 11.9638983942636 13.5090360107775 7.16623275089939
  endloop
endfacet
facet normal -0.923879532511188 0.0 0.382683432365328
  outer loop
    vertex 11.7840776337551 13.5090360107775 6.73210703208394
    vertex 11.9638983942636 19.8980720215547 7.16623275089939
    vertex 11.7840776337551 19.8980720215547 6.73210703208394
  endloop
endfacet
facet normal -0.793353340291332 0.0 0.608761429008595
  outer loop
    vertex 11.7840776337551 19.8980720215547 6.73210703208394
    vertex 11.498024113079 13.5090360107775 6.35931482594817
    vertex 11.7840776337551 13.5090360107775 6.73210703208394
  endloop
endfacet
facet normal -0.793353340291332 0.0 0.608761429008595
  outer loop
    vertex 11.498024113079 13.5090360107775 6.35931482594817
    vertex 11.7840776337551 19.8980720215547 6.73210703208394
    vertex 11.498024113079 19.8980720215547 6.35931482594817
  endloop
endfacet
facet normal -0.60876142900871 0.0 0.793353340291243
  outer loop
    vertex 11.498024113079 13.5090360107775 6.35931482594817
    vertex 11.1252319069432 19.8980720215547 6.07326130527197
    vertex 11.1252319069432 13.5090360107775 6.07326130527197
  endloop
endfacet
facet normal -0.60876142900871 0.0 0.793353340291243
  outer loop
    vertex 11.1252319069432 19.8980720215547 6.07326130527197
    vertex 11.498024113079 13.5090360107775 6.35931482594817
    vertex 11.498024113079 19.8980720215547 6.35931482594817
  endloop
endfacet
facet normal -0.382683432365116 0.0 0.923879532511276
  outer loop
    vertex 11.1252319069432 13.5090360107775 6.07326130527197
    vertex 10.6911061881278 19.8980720215547 5.89344054476364
    vertex 10.6911061881278 13.5090360107775 5.89344054476364
  endloop
endfacet
facet normal -0.382683432365116 0.0 0.923879532511276
  outer loop
    vertex 10.6911061881278 19.8980720215547 5.89344054476364
    vertex 11.1252319069432 13.5090360107775 6.07326130527197
    vertex 11.1252319069432 19.8980720215547 6.07326130527197
  endloop
endfacet
facet normal -0.130526192220041 0.0 0.991444861373812
  outer loop
    vertex 10.6911061881278 13.5090360107775 5.89344054476364
    vertex 10.2252319069433 19.8980720215547 5.83210703208397
    vertex 10.2252319069433 13.5090360107775 5.83210703208397
  endloop
endfacet
facet normal -0.130526192220041 0.0 0.991444861373812
  outer loop
    vertex 10.2252319069433 19.8980720215547 5.83210703208397
    vertex 10.6911061881278 13.5090360107775 5.89344054476364
    vertex 10.6911061881278 19.8980720215547 5.89344054476364
  endloop
endfacet
facet normal 0.130526192220042 0.0 0.991444861373812
  outer loop
    vertex 10.2252319069433 13.5090360107775 5.83210703208397
    vertex 9.7593576257587 19.8980720215547 5.89344054476364
    vertex 9.7593576257587 13.5090360107775 5.89344054476364
  endloop
endfacet
facet normal 0.130526192220042 0.0 0.991444861373812
  outer loop
    vertex 9.7593576257587 19.8980720215547 5.89344054476364
    vertex 10.2252319069433 13.5090360107775 5.83210703208397
    vertex 10.2252319069433 19.8980720215547 5.83210703208397
  endloop
endfacet
facet normal 0.382683432365118 0.0 0.923879532511275
  outer loop
    vertex 9.7593576257587 13.5090360107775 5.89344054476364
    vertex 9.32523190694329 19.8980720215547 6.07326130527197
    vertex 9.32523190694329 13.5090360107775 6.07326130527197
  endloop
endfacet
facet normal 0.382683432365118 0.0 0.923879532511275
  outer loop
    vertex 9.32523190694329 19.8980720215547 6.07326130527197
    vertex 9.7593576257587 13.5090360107775 5.89344054476364
    vertex 9.7593576257587 19.8980720215547 5.89344054476364
  endloop
endfacet
facet normal 0.60876142900871 0.0 0.793353340291243
  outer loop
    vertex 9.32523190694329 13.5090360107775 6.07326130527197
    vertex 8.9524397008075 19.8980720215547 6.35931482594817
    vertex 8.9524397008075 13.5090360107775 6.35931482594817
  endloop
endfacet
facet normal 0.60876142900871 0.0 0.793353340291243
  outer loop
    vertex 8.9524397008075 19.8980720215547 6.35931482594817
    vertex 9.32523190694329 13.5090360107775 6.07326130527197
    vertex 9.32523190694329 19.8980720215547 6.07326130527197
  endloop
endfacet
facet normal 0.793353340291332 0.0 0.608761429008595
  outer loop
    vertex 8.9524397008075 19.8980720215547 6.35931482594817
    vertex 8.6663861801314 13.5090360107775 6.73210703208394
    vertex 8.9524397008075 13.5090360107775 6.35931482594817
  endloop
endfacet
facet normal 0.793353340291332 0.0 0.608761429008595
  outer loop
    vertex 8.6663861801314 13.5090360107775 6.73210703208394
    vertex 8.9524397008075 19.8980720215547 6.35931482594817
    vertex 8.6663861801314 19.8980720215547 6.73210703208394
  endloop
endfacet
facet normal 0.923879532511188 0.0 0.382683432365328
  outer loop
    vertex 8.6663861801314 19.8980720215547 6.73210703208394
    vertex 8.48656541962294 13.5090360107775 7.16623275089939
    vertex 8.6663861801314 13.5090360107775 6.73210703208394
  endloop
endfacet
facet normal 0.923879532511188 0.0 0.382683432365328
  outer loop
    vertex 8.48656541962294 13.5090360107775 7.16623275089939
    vertex 8.6663861801314 19.8980720215547 6.73210703208394
    vertex 8.48656541962294 19.8980720215547 7.16623275089939
  endloop
endfacet
facet normal 0.991444861373823 0.0 0.130526192219954
  outer loop
    vertex 8.48656541962294 19.8980720215547 7.16623275089939
    vertex 8.42523190694331 13.5090360107775 7.63210703208392
    vertex 8.48656541962294 13.5090360107775 7.16623275089939
  endloop
endfacet
facet normal 0.991444861373823 0.0 0.130526192219954
  outer loop
    vertex 8.42523190694331 13.5090360107775 7.63210703208392
    vertex 8.48656541962294 19.8980720215547 7.16623275089939
    vertex 8.42523190694331 19.8980720215547 7.63210703208392
  endloop
endfacet
facet normal 0.991444861373823 0.0 -0.130526192219953
  outer loop
    vertex 8.42523190694331 19.8980720215547 7.63210703208392
    vertex 8.48656541962294 13.5090360107775 8.09798131326844
    vertex 8.42523190694331 13.5090360107775 7.63210703208392
  endloop
endfacet
facet normal 0.991444861373823 0.0 -0.130526192219953
  outer loop
    vertex 8.48656541962294 13.5090360107775 8.09798131326844
    vertex 8.42523190694331 19.8980720215547 7.63210703208392
    vertex 8.48656541962294 19.8980720215547 8.09798131326844
  endloop
endfacet
facet normal 0.923879532511188 0.0 -0.382683432365329
  outer loop
    vertex 8.48656541962294 19.8980720215547 8.09798131326844
    vertex 8.6663861801314 13.5090360107775 8.53210703208389
    vertex 8.48656541962294 13.5090360107775 8.09798131326844
  endloop
endfacet
facet normal 0.923879532511188 0.0 -0.382683432365329
  outer loop
    vertex 8.6663861801314 13.5090360107775 8.53210703208389
    vertex 8.48656541962294 19.8980720215547 8.09798131326844
    vertex 8.6663861801314 19.8980720215547 8.53210703208389
  endloop
endfacet
facet normal 0.793353340291333 0.0 -0.608761429008593
  outer loop
    vertex 8.6663861801314 19.8980720215547 8.53210703208389
    vertex 8.9524397008075 13.5090360107775 8.90489923821967
    vertex 8.6663861801314 13.5090360107775 8.53210703208389
  endloop
endfacet
facet normal 0.793353340291333 0.0 -0.608761429008593
  outer loop
    vertex 8.9524397008075 13.5090360107775 8.90489923821967
    vertex 8.6663861801314 19.8980720215547 8.53210703208389
    vertex 8.9524397008075 19.8980720215547 8.90489923821967
  endloop
endfacet
endsolid tapon_switch_leds
